{
	"asset":{
		"generator":"Khronos glTF Blender I/O v5.2.39",
		"version":"2.0"
	},
	"scene":0,
	"scenes":[
		{
			"name":"Scene",
			"nodes":[
				9
			]
		}
	],
	"nodes":[
		{
			"name":"Object_9"
		},
		{
			"children":[
				0
			],
			"name":"Camera",
			"rotation":[
				0,
				0.7071066498756409,
				0,
				0.70710688829422
			],
			"scale":[
				99.99999237060547,
				100,
				99.99999237060547
			],
			"translation":[
				0,
				0,
				1233
			]
		},
		{
			"mesh":0,
			"name":"Cube.001_Material_0"
		},
		{
			"children":[
				2
			],
			"name":"Cube.001",
			"rotation":[
				-0.70710688829422,
				0,
				0,
				0.7071066498756409
			],
			"scale":[
				34.60384750366211,
				34.603843688964844,
				34.603843688964844
			],
			"translation":[
				0,
				241.24252319335938,
				-24.381013870239258
			]
		},
		{
			"name":"Object_7"
		},
		{
			"children":[
				4
			],
			"name":"Object_6",
			"rotation":[
				0.70710688829422,
				0,
				0,
				0.7071066498756409
			]
		},
		{
			"children":[
				5
			],
			"name":"Lamp",
			"rotation":[
				0.3113259971141815,
				0.13937951624393463,
				-0.07576244324445724,
				0.9369683861732483
			],
			"scale":[
				100,
				100.00000762939453,
				100.00000762939453
			],
			"translation":[
				407.6245422363281,
				590.38623046875,
				1029.703125
			]
		},
		{
			"children":[
				1,
				3,
				6
			],
			"name":"RootNode"
		},
		{
			"children":[
				7
			],
			"name":"15effdee34d24b048a0cb8ceefe0fced.fbx",
			"rotation":[
				0.70710688829422,
				0,
				0,
				0.7071066498756409
			]
		},
		{
			"children":[
				8
			],
			"name":"Sketchfab_model",
			"rotation":[
				-0.70710688829422,
				0,
				0,
				0.7071066498756409
			]
		}
	],
	"materials":[
		{
			"doubleSided":true,
			"name":"Material.001",
			"pbrMetallicRoughness":{
				"metallicFactor":0,
				"roughnessFactor":0.6000000238418579
			}
		}
	],
	"meshes":[
		{
			"name":"Cube.001_Material_0",
			"primitives":[
				{
					"attributes":{
						"POSITION":0,
						"NORMAL":1
					},
					"indices":2,
					"material":0
				}
			]
		}
	],
	"accessors":[
		{
			"bufferView":0,
			"componentType":5126,
			"count":3144,
			"max":[
				0.5081461668014526,
				-0.5671156048774719,
				-5.360458850860596
			],
			"min":[
				-0.5081460475921631,
				-0.8544743061065674,
				-6.971086502075195
			],
			"type":"VEC3"
		},
		{
			"bufferView":1,
			"componentType":5126,
			"count":3144,
			"type":"VEC3"
		},
		{
			"bufferView":2,
			"componentType":5123,
			"count":3144,
			"type":"SCALAR"
		}
	],
	"bufferViews":[
		{
			"buffer":0,
			"byteLength":37728,
			"byteOffset":0,
			"target":34962
		},
		{
			"buffer":0,
			"byteLength":37728,
			"byteOffset":37728,
			"target":34962
		},
		{
			"buffer":0,
			"byteLength":6288,
			"byteOffset":75456,
			"target":34963
		}
	],
	"buffers":[
		{
			"byteLength":81744,
			"uri":"enemy.bin"
		}
	]
}
