{
	"asset":{
		"generator":"Khronos glTF Blender I/O v5.2.39",
		"version":"2.0"
	},
	"scene":0,
	"scenes":[
		{
			"name":"Scene",
			"nodes":[
				24
			]
		}
	],
	"nodes":[
		{
			"name":"\u30dc\u30fc\u30f3.004",
			"rotation":[
				0.040630266070365906,
				-0.0008425544365309179,
				-0.0037865620106458664,
				0.99916672706604
			],
			"scale":[
				1,
				0.9999999403953552,
				0.9999998807907104
			],
			"translation":[
				9.74978320300579e-10,
				0.4683292806148529,
				3.42743078363128e-08
			]
		},
		{
			"name":"\u30dc\u30fc\u30f3.009",
			"rotation":[
				0.10768847912549973,
				-0.0328238271176815,
				-0.19049040973186493,
				0.9752123951911926
			],
			"scale":[
				0.9999999403953552,
				1,
				0.9999998211860657
			],
			"translation":[
				5.4882658417909624e-08,
				1.0441445112228394,
				5.029141902923584e-08
			]
		},
		{
			"children":[
				1
			],
			"name":"\u30dc\u30fc\u30f3.008",
			"rotation":[
				0.12668581306934357,
				0.0031881933100521564,
				-0.04786115884780884,
				0.9907824397087097
			],
			"scale":[
				0.9999998807907104,
				0.9999999403953552,
				1
			],
			"translation":[
				3.291985706255218e-08,
				1.2287352085113525,
				0
			]
		},
		{
			"children":[
				2
			],
			"name":"\u30dc\u30fc\u30f3.007",
			"rotation":[
				0.05103859305381775,
				0.11290761083364487,
				-0.4403008222579956,
				0.8892592787742615
			],
			"scale":[
				1,
				1.0000001192092896,
				1
			],
			"translation":[
				7.67949813962332e-07,
				1.0016437768936157,
				-1.4901161193847656e-08
			]
		},
		{
			"children":[
				3
			],
			"name":"\u30dc\u30fc\u30f3.006",
			"rotation":[
				-0.05150427296757698,
				0.01616167649626732,
				-0.06321267783641815,
				0.9965391755104065
			],
			"scale":[
				1,
				0.9999999403953552,
				0.9999999403953552
			],
			"translation":[
				-8.49403534175508e-07,
				1.0550289154052734,
				5.214907972117544e-08
			]
		},
		{
			"children":[
				4
			],
			"name":"\u30dc\u30fc\u30f3.005",
			"rotation":[
				-0.12035373598337173,
				0.009482140652835369,
				-0.7763363122940063,
				0.6186493635177612
			],
			"scale":[
				1.0000001192092896,
				1,
				1
			],
			"translation":[
				9.74978320300579e-10,
				0.4683292806148529,
				3.42743078363128e-08
			]
		},
		{
			"name":"\u30dc\u30fc\u30f3.018",
			"rotation":[
				0.1155102401971817,
				-0.03137773647904396,
				0.18585115671157837,
				0.9752600789070129
			],
			"scale":[
				1.0000001192092896,
				1,
				1.0000001192092896
			],
			"translation":[
				4.6938657760620117e-07,
				1.0441445112228394,
				3.725290298461914e-08
			]
		},
		{
			"children":[
				6
			],
			"name":"\u30dc\u30fc\u30f3.017",
			"rotation":[
				0.12875087559223175,
				0.06631874293088913,
				0.04199054837226868,
				0.9885655641555786
			],
			"scale":[
				1.0000001192092896,
				1,
				1.0000001192092896
			],
			"translation":[
				5.960464477539063e-08,
				1.2287348508834839,
				-7.450580596923828e-08
			]
		},
		{
			"children":[
				7
			],
			"name":"\u30dc\u30fc\u30f3.016",
			"rotation":[
				0.3451524078845978,
				0.45680174231529236,
				0.2780996859073639,
				0.7712733745574951
			],
			"scale":[
				1,
				1,
				1.0000001192092896
			],
			"translation":[
				0,
				1.0016441345214844,
				1.825392246246338e-07
			]
		},
		{
			"children":[
				8
			],
			"name":"\u30dc\u30fc\u30f3.015",
			"rotation":[
				0.05931592360138893,
				0.04373941943049431,
				0.055948060005903244,
				0.9957099556922913
			],
			"scale":[
				1,
				0.9999998211860657,
				0.9999998807907104
			],
			"translation":[
				5.2467132860556376e-08,
				1.0550287961959839,
				-8.942379281506874e-07
			]
		},
		{
			"children":[
				9
			],
			"name":"\u30dc\u30fc\u30f3.014",
			"rotation":[
				0.45748674869537354,
				-0.4437284767627716,
				0.6358166933059692,
				0.43537116050720215
			],
			"scale":[
				1.0000001192092896,
				1.0000001192092896,
				1
			],
			"translation":[
				0.003541785990819335,
				0.46831637620925903,
				4.123149665247183e-06
			]
		},
		{
			"children":[
				0,
				5,
				10
			],
			"name":"\u30dc\u30fc\u30f3.003",
			"rotation":[
				0.20670348405838013,
				0.0001883623917819932,
				0.0019721987191587687,
				0.9784016013145447
			],
			"scale":[
				1,
				1,
				1.0000001192092896
			],
			"translation":[
				2.682000860006605e-22,
				0.8655305504798889,
				1.1920928955078125e-07
			]
		},
		{
			"children":[
				11
			],
			"name":"\u30dc\u30fc\u30f3.002",
			"rotation":[
				-0.11822114139795303,
				4.2000499266518906e-16,
				-3.5277994752064366e-15,
				0.9929872751235962
			],
			"scale":[
				1,
				0.9999999403953552,
				1
			],
			"translation":[
				-2.9873627822352594e-21,
				0.8656821846961975,
				-1.3504177331924438e-08
			]
		},
		{
			"children":[
				12
			],
			"name":"\u30dc\u30fc\u30f3.001",
			"rotation":[
				-0.1585293412208557,
				-1.1770177366088319e-07,
				-1.8898164810821072e-08,
				0.9873542785644531
			],
			"translation":[
				2.804203199399495e-14,
				1.0534348487854004,
				0
			]
		},
		{
			"name":"\u30dc\u30fc\u30f3.013",
			"rotation":[
				-0.016222946345806122,
				-0.0007655230001546443,
				-0.7596644759178162,
				0.6501123905181885
			],
			"scale":[
				0.9999998211860657,
				1.0000001192092896,
				1
			],
			"translation":[
				-3.3527612686157227e-08,
				1.1502560377120972,
				-7.82817721756146e-08
			]
		},
		{
			"children":[
				14
			],
			"name":"\u30dc\u30fc\u30f3.012",
			"rotation":[
				-0.04688303545117378,
				0.010912214405834675,
				0.0015110906679183245,
				0.9988396763801575
			],
			"scale":[
				1,
				0.9999999403953552,
				0.9999998211860657
			],
			"translation":[
				-3.725290298461914e-08,
				0.7770527601242065,
				1.1151763956718241e-08
			]
		},
		{
			"children":[
				15
			],
			"name":"\u30dc\u30fc\u30f3.011",
			"rotation":[
				-0.4329172968864441,
				-0.0289445873349905,
				0.2610187232494354,
				0.8623306155204773
			],
			"scale":[
				0.9999999403953552,
				1.0000001192092896,
				1.0000001192092896
			],
			"translation":[
				0,
				0.7436476945877075,
				7.3248564547157e-08
			]
		},
		{
			"children":[
				16
			],
			"name":"\u30dc\u30fc\u30f3.010",
			"rotation":[
				-0.5312089323997498,
				-0.6060041785240173,
				-0.548145055770874,
				0.22385971248149872
			],
			"scale":[
				0.9999998211860657,
				0.9999999403953552,
				0.9999998211860657
			],
			"translation":[
				7.105427357601002e-15,
				0,
				5.960464477539063e-08
			]
		},
		{
			"name":"\u30dc\u30fc\u30f3.022",
			"rotation":[
				0.14707615971565247,
				0.18973001837730408,
				-0.7454675436019897,
				0.6218113303184509
			],
			"scale":[
				1.0000001192092896,
				1.0000001192092896,
				1.0000001192092896
			],
			"translation":[
				-7.450580596923828e-09,
				1.1502562761306763,
				-5.4016709327697754e-08
			]
		},
		{
			"children":[
				18
			],
			"name":"\u30dc\u30fc\u30f3.021",
			"rotation":[
				0.04661170393228531,
				0.012076170183718204,
				-0.00525790685787797,
				0.998826265335083
			],
			"translation":[
				-2.2351741790771484e-08,
				0.7770529389381409,
				-1.1175870895385742e-08
			]
		},
		{
			"children":[
				19
			],
			"name":"\u30dc\u30fc\u30f3.020",
			"rotation":[
				0.1440354883670807,
				-0.6613105535507202,
				0.4845636188983917,
				0.5541843771934509
			],
			"scale":[
				0.9999998807907104,
				0.9999999403953552,
				0.9999999403953552
			],
			"translation":[
				2.3283064365386963e-07,
				0.7436478734016418,
				-1.4901161193847656e-08
			]
		},
		{
			"children":[
				20
			],
			"name":"\u30dc\u30fc\u30f3.019",
			"rotation":[
				-0.016782943159341812,
				0.2921295762062073,
				0.7631279826164246,
				0.5762069225311279
			],
			"scale":[
				1,
				0.9999999403953552,
				0.9999999403953552
			],
			"translation":[
				2.3557419442888847e-14,
				2.353048529357693e-07,
				-9.399999889581068e-09
			]
		},
		{
			"children":[
				13,
				17,
				21
			],
			"name":"\u30dc\u30fc\u30f3",
			"rotation":[
				0.15925505757331848,
				1.1768785412868965e-07,
				1.898468582339774e-08,
				0.9872375130653381
			]
		},
		{
			"mesh":0,
			"name":"Cube_0",
			"skin":0
		},
		{
			"children":[
				23,
				22
			],
			"name":"\u30a2\u30fc\u30de\u30c1\u30e5\u30a2",
			"scale":[
				0.32540005445480347,
				0.32540005445480347,
				0.32540005445480347
			],
			"translation":[
				0,
				0.7081446647644043,
				0
			]
		}
	],
	"animations":[
		{
			"channels":[
				{
					"sampler":0,
					"target":{
						"node":22,
						"path":"translation"
					}
				},
				{
					"sampler":1,
					"target":{
						"node":22,
						"path":"rotation"
					}
				},
				{
					"sampler":2,
					"target":{
						"node":22,
						"path":"scale"
					}
				},
				{
					"sampler":3,
					"target":{
						"node":13,
						"path":"translation"
					}
				},
				{
					"sampler":4,
					"target":{
						"node":13,
						"path":"rotation"
					}
				},
				{
					"sampler":5,
					"target":{
						"node":13,
						"path":"scale"
					}
				},
				{
					"sampler":6,
					"target":{
						"node":12,
						"path":"translation"
					}
				},
				{
					"sampler":7,
					"target":{
						"node":12,
						"path":"rotation"
					}
				},
				{
					"sampler":8,
					"target":{
						"node":12,
						"path":"scale"
					}
				},
				{
					"sampler":9,
					"target":{
						"node":11,
						"path":"translation"
					}
				},
				{
					"sampler":10,
					"target":{
						"node":11,
						"path":"rotation"
					}
				},
				{
					"sampler":11,
					"target":{
						"node":11,
						"path":"scale"
					}
				},
				{
					"sampler":12,
					"target":{
						"node":0,
						"path":"translation"
					}
				},
				{
					"sampler":13,
					"target":{
						"node":0,
						"path":"rotation"
					}
				},
				{
					"sampler":14,
					"target":{
						"node":0,
						"path":"scale"
					}
				},
				{
					"sampler":15,
					"target":{
						"node":5,
						"path":"translation"
					}
				},
				{
					"sampler":16,
					"target":{
						"node":5,
						"path":"rotation"
					}
				},
				{
					"sampler":17,
					"target":{
						"node":5,
						"path":"scale"
					}
				},
				{
					"sampler":18,
					"target":{
						"node":4,
						"path":"translation"
					}
				},
				{
					"sampler":19,
					"target":{
						"node":4,
						"path":"rotation"
					}
				},
				{
					"sampler":20,
					"target":{
						"node":4,
						"path":"scale"
					}
				},
				{
					"sampler":21,
					"target":{
						"node":3,
						"path":"translation"
					}
				},
				{
					"sampler":22,
					"target":{
						"node":3,
						"path":"rotation"
					}
				},
				{
					"sampler":23,
					"target":{
						"node":3,
						"path":"scale"
					}
				},
				{
					"sampler":24,
					"target":{
						"node":2,
						"path":"translation"
					}
				},
				{
					"sampler":25,
					"target":{
						"node":2,
						"path":"rotation"
					}
				},
				{
					"sampler":26,
					"target":{
						"node":2,
						"path":"scale"
					}
				},
				{
					"sampler":27,
					"target":{
						"node":1,
						"path":"translation"
					}
				},
				{
					"sampler":28,
					"target":{
						"node":1,
						"path":"rotation"
					}
				},
				{
					"sampler":29,
					"target":{
						"node":1,
						"path":"scale"
					}
				},
				{
					"sampler":30,
					"target":{
						"node":10,
						"path":"translation"
					}
				},
				{
					"sampler":31,
					"target":{
						"node":10,
						"path":"rotation"
					}
				},
				{
					"sampler":32,
					"target":{
						"node":10,
						"path":"scale"
					}
				},
				{
					"sampler":33,
					"target":{
						"node":9,
						"path":"translation"
					}
				},
				{
					"sampler":34,
					"target":{
						"node":9,
						"path":"rotation"
					}
				},
				{
					"sampler":35,
					"target":{
						"node":9,
						"path":"scale"
					}
				},
				{
					"sampler":36,
					"target":{
						"node":8,
						"path":"translation"
					}
				},
				{
					"sampler":37,
					"target":{
						"node":8,
						"path":"rotation"
					}
				},
				{
					"sampler":38,
					"target":{
						"node":8,
						"path":"scale"
					}
				},
				{
					"sampler":39,
					"target":{
						"node":7,
						"path":"translation"
					}
				},
				{
					"sampler":40,
					"target":{
						"node":7,
						"path":"rotation"
					}
				},
				{
					"sampler":41,
					"target":{
						"node":7,
						"path":"scale"
					}
				},
				{
					"sampler":42,
					"target":{
						"node":6,
						"path":"translation"
					}
				},
				{
					"sampler":43,
					"target":{
						"node":6,
						"path":"rotation"
					}
				},
				{
					"sampler":44,
					"target":{
						"node":6,
						"path":"scale"
					}
				},
				{
					"sampler":45,
					"target":{
						"node":17,
						"path":"translation"
					}
				},
				{
					"sampler":46,
					"target":{
						"node":17,
						"path":"rotation"
					}
				},
				{
					"sampler":47,
					"target":{
						"node":17,
						"path":"scale"
					}
				},
				{
					"sampler":48,
					"target":{
						"node":16,
						"path":"translation"
					}
				},
				{
					"sampler":49,
					"target":{
						"node":16,
						"path":"rotation"
					}
				},
				{
					"sampler":50,
					"target":{
						"node":16,
						"path":"scale"
					}
				},
				{
					"sampler":51,
					"target":{
						"node":15,
						"path":"translation"
					}
				},
				{
					"sampler":52,
					"target":{
						"node":15,
						"path":"rotation"
					}
				},
				{
					"sampler":53,
					"target":{
						"node":15,
						"path":"scale"
					}
				},
				{
					"sampler":54,
					"target":{
						"node":14,
						"path":"translation"
					}
				},
				{
					"sampler":55,
					"target":{
						"node":14,
						"path":"rotation"
					}
				},
				{
					"sampler":56,
					"target":{
						"node":14,
						"path":"scale"
					}
				},
				{
					"sampler":57,
					"target":{
						"node":21,
						"path":"translation"
					}
				},
				{
					"sampler":58,
					"target":{
						"node":21,
						"path":"rotation"
					}
				},
				{
					"sampler":59,
					"target":{
						"node":21,
						"path":"scale"
					}
				},
				{
					"sampler":60,
					"target":{
						"node":20,
						"path":"translation"
					}
				},
				{
					"sampler":61,
					"target":{
						"node":20,
						"path":"rotation"
					}
				},
				{
					"sampler":62,
					"target":{
						"node":20,
						"path":"scale"
					}
				},
				{
					"sampler":63,
					"target":{
						"node":19,
						"path":"translation"
					}
				},
				{
					"sampler":64,
					"target":{
						"node":19,
						"path":"rotation"
					}
				},
				{
					"sampler":65,
					"target":{
						"node":19,
						"path":"scale"
					}
				},
				{
					"sampler":66,
					"target":{
						"node":18,
						"path":"translation"
					}
				},
				{
					"sampler":67,
					"target":{
						"node":18,
						"path":"rotation"
					}
				},
				{
					"sampler":68,
					"target":{
						"node":18,
						"path":"scale"
					}
				}
			],
			"name":"\u30a2\u30fc\u30de\u30c1\u30e5\u30a2\u30a2\u30af\u30b7\u30e7\u30f3",
			"samplers":[
				{
					"input":6,
					"interpolation":"STEP",
					"output":7
				},
				{
					"input":6,
					"interpolation":"STEP",
					"output":8
				},
				{
					"input":6,
					"interpolation":"STEP",
					"output":9
				},
				{
					"input":6,
					"interpolation":"STEP",
					"output":10
				},
				{
					"input":6,
					"interpolation":"STEP",
					"output":11
				},
				{
					"input":6,
					"interpolation":"STEP",
					"output":12
				},
				{
					"input":6,
					"interpolation":"STEP",
					"output":13
				},
				{
					"input":14,
					"interpolation":"LINEAR",
					"output":15
				},
				{
					"input":6,
					"interpolation":"STEP",
					"output":16
				},
				{
					"input":6,
					"interpolation":"STEP",
					"output":17
				},
				{
					"input":6,
					"interpolation":"STEP",
					"output":18
				},
				{
					"input":6,
					"interpolation":"STEP",
					"output":12
				},
				{
					"input":6,
					"interpolation":"STEP",
					"output":19
				},
				{
					"input":14,
					"interpolation":"LINEAR",
					"output":20
				},
				{
					"input":6,
					"interpolation":"STEP",
					"output":21
				},
				{
					"input":6,
					"interpolation":"STEP",
					"output":22
				},
				{
					"input":6,
					"interpolation":"STEP",
					"output":23
				},
				{
					"input":6,
					"interpolation":"STEP",
					"output":24
				},
				{
					"input":6,
					"interpolation":"STEP",
					"output":25
				},
				{
					"input":14,
					"interpolation":"LINEAR",
					"output":26
				},
				{
					"input":6,
					"interpolation":"STEP",
					"output":27
				},
				{
					"input":6,
					"interpolation":"STEP",
					"output":28
				},
				{
					"input":14,
					"interpolation":"LINEAR",
					"output":29
				},
				{
					"input":14,
					"interpolation":"LINEAR",
					"output":30
				},
				{
					"input":6,
					"interpolation":"STEP",
					"output":31
				},
				{
					"input":14,
					"interpolation":"LINEAR",
					"output":32
				},
				{
					"input":6,
					"interpolation":"STEP",
					"output":33
				},
				{
					"input":6,
					"interpolation":"STEP",
					"output":34
				},
				{
					"input":14,
					"interpolation":"LINEAR",
					"output":35
				},
				{
					"input":6,
					"interpolation":"STEP",
					"output":36
				},
				{
					"input":6,
					"interpolation":"STEP",
					"output":37
				},
				{
					"input":6,
					"interpolation":"STEP",
					"output":38
				},
				{
					"input":6,
					"interpolation":"STEP",
					"output":39
				},
				{
					"input":6,
					"interpolation":"STEP",
					"output":40
				},
				{
					"input":14,
					"interpolation":"LINEAR",
					"output":41
				},
				{
					"input":6,
					"interpolation":"STEP",
					"output":42
				},
				{
					"input":6,
					"interpolation":"STEP",
					"output":43
				},
				{
					"input":14,
					"interpolation":"LINEAR",
					"output":44
				},
				{
					"input":14,
					"interpolation":"LINEAR",
					"output":45
				},
				{
					"input":6,
					"interpolation":"STEP",
					"output":46
				},
				{
					"input":14,
					"interpolation":"LINEAR",
					"output":47
				},
				{
					"input":6,
					"interpolation":"STEP",
					"output":48
				},
				{
					"input":6,
					"interpolation":"STEP",
					"output":49
				},
				{
					"input":14,
					"interpolation":"LINEAR",
					"output":50
				},
				{
					"input":6,
					"interpolation":"STEP",
					"output":51
				},
				{
					"input":6,
					"interpolation":"STEP",
					"output":52
				},
				{
					"input":6,
					"interpolation":"STEP",
					"output":53
				},
				{
					"input":6,
					"interpolation":"STEP",
					"output":54
				},
				{
					"input":6,
					"interpolation":"STEP",
					"output":55
				},
				{
					"input":14,
					"interpolation":"LINEAR",
					"output":56
				},
				{
					"input":6,
					"interpolation":"STEP",
					"output":57
				},
				{
					"input":6,
					"interpolation":"STEP",
					"output":58
				},
				{
					"input":14,
					"interpolation":"LINEAR",
					"output":59
				},
				{
					"input":6,
					"interpolation":"STEP",
					"output":60
				},
				{
					"input":6,
					"interpolation":"STEP",
					"output":61
				},
				{
					"input":6,
					"interpolation":"STEP",
					"output":62
				},
				{
					"input":6,
					"interpolation":"STEP",
					"output":51
				},
				{
					"input":6,
					"interpolation":"STEP",
					"output":63
				},
				{
					"input":6,
					"interpolation":"STEP",
					"output":64
				},
				{
					"input":6,
					"interpolation":"STEP",
					"output":65
				},
				{
					"input":6,
					"interpolation":"STEP",
					"output":66
				},
				{
					"input":14,
					"interpolation":"LINEAR",
					"output":67
				},
				{
					"input":6,
					"interpolation":"STEP",
					"output":68
				},
				{
					"input":6,
					"interpolation":"STEP",
					"output":69
				},
				{
					"input":14,
					"interpolation":"LINEAR",
					"output":70
				},
				{
					"input":6,
					"interpolation":"STEP",
					"output":71
				},
				{
					"input":6,
					"interpolation":"STEP",
					"output":72
				},
				{
					"input":6,
					"interpolation":"STEP",
					"output":73
				},
				{
					"input":6,
					"interpolation":"STEP",
					"output":74
				}
			]
		}
	],
	"materials":[
		{
			"doubleSided":true,
			"name":"Material.001",
			"pbrMetallicRoughness":{
				"baseColorFactor":[
					0.2461950033903122,
					0.014444000087678432,
					0.014444000087678432,
					1
				],
				"metallicFactor":0.48666396737098694,
				"roughnessFactor":0.6000000238418579
			}
		}
	],
	"meshes":[
		{
			"name":"Cube_0",
			"primitives":[
				{
					"attributes":{
						"POSITION":0,
						"NORMAL":1,
						"JOINTS_0":2,
						"WEIGHTS_0":3
					},
					"indices":4,
					"material":0
				}
			]
		}
	],
	"skins":[
		{
			"inverseBindMatrices":5,
			"joints":[
				22,
				13,
				12,
				11,
				0,
				5,
				4,
				3,
				2,
				1,
				10,
				9,
				8,
				7,
				6,
				17,
				16,
				15,
				14,
				21,
				20,
				19,
				18
			],
			"name":"\u30a2\u30fc\u30de\u30c1\u30e5\u30a2"
		}
	],
	"accessors":[
		{
			"bufferView":0,
			"componentType":5126,
			"count":387,
			"max":[
				0.930840015411377,
				2.4413700103759766,
				0.42537984251976013
			],
			"min":[
				-0.930840015411377,
				0.00778999226167798,
				-0.3932601809501648
			],
			"type":"VEC3"
		},
		{
			"bufferView":1,
			"componentType":5126,
			"count":387,
			"type":"VEC3"
		},
		{
			"bufferView":2,
			"componentType":5121,
			"count":387,
			"type":"VEC4"
		},
		{
			"bufferView":3,
			"componentType":5126,
			"count":387,
			"type":"VEC4"
		},
		{
			"bufferView":4,
			"componentType":5123,
			"count":2310,
			"type":"SCALAR"
		},
		{
			"bufferView":5,
			"componentType":5126,
			"count":23,
			"type":"MAT4"
		},
		{
			"bufferView":6,
			"componentType":5126,
			"count":2,
			"max":[
				0.2916666666666667
			],
			"min":[
				0.041666666666666664
			],
			"type":"SCALAR"
		},
		{
			"bufferView":7,
			"componentType":5126,
			"count":2,
			"type":"VEC3"
		},
		{
			"bufferView":8,
			"componentType":5126,
			"count":2,
			"type":"VEC4"
		},
		{
			"bufferView":9,
			"componentType":5126,
			"count":2,
			"type":"VEC3"
		},
		{
			"bufferView":10,
			"componentType":5126,
			"count":2,
			"type":"VEC3"
		},
		{
			"bufferView":11,
			"componentType":5126,
			"count":2,
			"type":"VEC4"
		},
		{
			"bufferView":12,
			"componentType":5126,
			"count":2,
			"type":"VEC3"
		},
		{
			"bufferView":13,
			"componentType":5126,
			"count":2,
			"type":"VEC3"
		},
		{
			"bufferView":14,
			"componentType":5126,
			"count":7,
			"max":[
				0.2916666666666667
			],
			"min":[
				0.041666666666666664
			],
			"type":"SCALAR"
		},
		{
			"bufferView":15,
			"componentType":5126,
			"count":7,
			"type":"VEC4"
		},
		{
			"bufferView":16,
			"componentType":5126,
			"count":2,
			"type":"VEC3"
		},
		{
			"bufferView":17,
			"componentType":5126,
			"count":2,
			"type":"VEC3"
		},
		{
			"bufferView":18,
			"componentType":5126,
			"count":2,
			"type":"VEC4"
		},
		{
			"bufferView":19,
			"componentType":5126,
			"count":2,
			"type":"VEC3"
		},
		{
			"bufferView":20,
			"componentType":5126,
			"count":7,
			"type":"VEC4"
		},
		{
			"bufferView":21,
			"componentType":5126,
			"count":2,
			"type":"VEC3"
		},
		{
			"bufferView":22,
			"componentType":5126,
			"count":2,
			"type":"VEC3"
		},
		{
			"bufferView":23,
			"componentType":5126,
			"count":2,
			"type":"VEC4"
		},
		{
			"bufferView":24,
			"componentType":5126,
			"count":2,
			"type":"VEC3"
		},
		{
			"bufferView":25,
			"componentType":5126,
			"count":2,
			"type":"VEC3"
		},
		{
			"bufferView":26,
			"componentType":5126,
			"count":7,
			"type":"VEC4"
		},
		{
			"bufferView":27,
			"componentType":5126,
			"count":2,
			"type":"VEC3"
		},
		{
			"bufferView":28,
			"componentType":5126,
			"count":2,
			"type":"VEC3"
		},
		{
			"bufferView":29,
			"componentType":5126,
			"count":7,
			"type":"VEC4"
		},
		{
			"bufferView":30,
			"componentType":5126,
			"count":7,
			"type":"VEC3"
		},
		{
			"bufferView":31,
			"componentType":5126,
			"count":2,
			"type":"VEC3"
		},
		{
			"bufferView":32,
			"componentType":5126,
			"count":7,
			"type":"VEC4"
		},
		{
			"bufferView":33,
			"componentType":5126,
			"count":2,
			"type":"VEC3"
		},
		{
			"bufferView":34,
			"componentType":5126,
			"count":2,
			"type":"VEC3"
		},
		{
			"bufferView":35,
			"componentType":5126,
			"count":7,
			"type":"VEC4"
		},
		{
			"bufferView":36,
			"componentType":5126,
			"count":2,
			"type":"VEC3"
		},
		{
			"bufferView":37,
			"componentType":5126,
			"count":2,
			"type":"VEC3"
		},
		{
			"bufferView":38,
			"componentType":5126,
			"count":2,
			"type":"VEC4"
		},
		{
			"bufferView":39,
			"componentType":5126,
			"count":2,
			"type":"VEC3"
		},
		{
			"bufferView":40,
			"componentType":5126,
			"count":2,
			"type":"VEC3"
		},
		{
			"bufferView":41,
			"componentType":5126,
			"count":7,
			"type":"VEC4"
		},
		{
			"bufferView":42,
			"componentType":5126,
			"count":2,
			"type":"VEC3"
		},
		{
			"bufferView":43,
			"componentType":5126,
			"count":2,
			"type":"VEC3"
		},
		{
			"bufferView":44,
			"componentType":5126,
			"count":7,
			"type":"VEC4"
		},
		{
			"bufferView":45,
			"componentType":5126,
			"count":7,
			"type":"VEC3"
		},
		{
			"bufferView":46,
			"componentType":5126,
			"count":2,
			"type":"VEC3"
		},
		{
			"bufferView":47,
			"componentType":5126,
			"count":7,
			"type":"VEC4"
		},
		{
			"bufferView":48,
			"componentType":5126,
			"count":2,
			"type":"VEC3"
		},
		{
			"bufferView":49,
			"componentType":5126,
			"count":2,
			"type":"VEC3"
		},
		{
			"bufferView":50,
			"componentType":5126,
			"count":7,
			"type":"VEC4"
		},
		{
			"bufferView":51,
			"componentType":5126,
			"count":2,
			"type":"VEC3"
		},
		{
			"bufferView":52,
			"componentType":5126,
			"count":2,
			"type":"VEC3"
		},
		{
			"bufferView":53,
			"componentType":5126,
			"count":2,
			"type":"VEC4"
		},
		{
			"bufferView":54,
			"componentType":5126,
			"count":2,
			"type":"VEC3"
		},
		{
			"bufferView":55,
			"componentType":5126,
			"count":2,
			"type":"VEC3"
		},
		{
			"bufferView":56,
			"componentType":5126,
			"count":7,
			"type":"VEC4"
		},
		{
			"bufferView":57,
			"componentType":5126,
			"count":2,
			"type":"VEC3"
		},
		{
			"bufferView":58,
			"componentType":5126,
			"count":2,
			"type":"VEC3"
		},
		{
			"bufferView":59,
			"componentType":5126,
			"count":7,
			"type":"VEC4"
		},
		{
			"bufferView":60,
			"componentType":5126,
			"count":2,
			"type":"VEC3"
		},
		{
			"bufferView":61,
			"componentType":5126,
			"count":2,
			"type":"VEC3"
		},
		{
			"bufferView":62,
			"componentType":5126,
			"count":2,
			"type":"VEC4"
		},
		{
			"bufferView":63,
			"componentType":5126,
			"count":2,
			"type":"VEC3"
		},
		{
			"bufferView":64,
			"componentType":5126,
			"count":2,
			"type":"VEC4"
		},
		{
			"bufferView":65,
			"componentType":5126,
			"count":2,
			"type":"VEC3"
		},
		{
			"bufferView":66,
			"componentType":5126,
			"count":2,
			"type":"VEC3"
		},
		{
			"bufferView":67,
			"componentType":5126,
			"count":7,
			"type":"VEC4"
		},
		{
			"bufferView":68,
			"componentType":5126,
			"count":2,
			"type":"VEC3"
		},
		{
			"bufferView":69,
			"componentType":5126,
			"count":2,
			"type":"VEC3"
		},
		{
			"bufferView":70,
			"componentType":5126,
			"count":7,
			"type":"VEC4"
		},
		{
			"bufferView":71,
			"componentType":5126,
			"count":2,
			"type":"VEC3"
		},
		{
			"bufferView":72,
			"componentType":5126,
			"count":2,
			"type":"VEC3"
		},
		{
			"bufferView":73,
			"componentType":5126,
			"count":2,
			"type":"VEC4"
		},
		{
			"bufferView":74,
			"componentType":5126,
			"count":2,
			"type":"VEC3"
		}
	],
	"bufferViews":[
		{
			"buffer":0,
			"byteLength":4644,
			"byteOffset":0,
			"target":34962
		},
		{
			"buffer":0,
			"byteLength":4644,
			"byteOffset":4644,
			"target":34962
		},
		{
			"buffer":0,
			"byteLength":1548,
			"byteOffset":9288,
			"target":34962
		},
		{
			"buffer":0,
			"byteLength":6192,
			"byteOffset":10836,
			"target":34962
		},
		{
			"buffer":0,
			"byteLength":4620,
			"byteOffset":17028,
			"target":34963
		},
		{
			"buffer":0,
			"byteLength":1472,
			"byteOffset":21648
		},
		{
			"buffer":0,
			"byteLength":8,
			"byteOffset":23120
		},
		{
			"buffer":0,
			"byteLength":24,
			"byteOffset":23128
		},
		{
			"buffer":0,
			"byteLength":32,
			"byteOffset":23152
		},
		{
			"buffer":0,
			"byteLength":24,
			"byteOffset":23184
		},
		{
			"buffer":0,
			"byteLength":24,
			"byteOffset":23208
		},
		{
			"buffer":0,
			"byteLength":32,
			"byteOffset":23232
		},
		{
			"buffer":0,
			"byteLength":24,
			"byteOffset":23264
		},
		{
			"buffer":0,
			"byteLength":24,
			"byteOffset":23288
		},
		{
			"buffer":0,
			"byteLength":28,
			"byteOffset":23312
		},
		{
			"buffer":0,
			"byteLength":112,
			"byteOffset":23340
		},
		{
			"buffer":0,
			"byteLength":24,
			"byteOffset":23452
		},
		{
			"buffer":0,
			"byteLength":24,
			"byteOffset":23476
		},
		{
			"buffer":0,
			"byteLength":32,
			"byteOffset":23500
		},
		{
			"buffer":0,
			"byteLength":24,
			"byteOffset":23532
		},
		{
			"buffer":0,
			"byteLength":112,
			"byteOffset":23556
		},
		{
			"buffer":0,
			"byteLength":24,
			"byteOffset":23668
		},
		{
			"buffer":0,
			"byteLength":24,
			"byteOffset":23692
		},
		{
			"buffer":0,
			"byteLength":32,
			"byteOffset":23716
		},
		{
			"buffer":0,
			"byteLength":24,
			"byteOffset":23748
		},
		{
			"buffer":0,
			"byteLength":24,
			"byteOffset":23772
		},
		{
			"buffer":0,
			"byteLength":112,
			"byteOffset":23796
		},
		{
			"buffer":0,
			"byteLength":24,
			"byteOffset":23908
		},
		{
			"buffer":0,
			"byteLength":24,
			"byteOffset":23932
		},
		{
			"buffer":0,
			"byteLength":112,
			"byteOffset":23956
		},
		{
			"buffer":0,
			"byteLength":84,
			"byteOffset":24068
		},
		{
			"buffer":0,
			"byteLength":24,
			"byteOffset":24152
		},
		{
			"buffer":0,
			"byteLength":112,
			"byteOffset":24176
		},
		{
			"buffer":0,
			"byteLength":24,
			"byteOffset":24288
		},
		{
			"buffer":0,
			"byteLength":24,
			"byteOffset":24312
		},
		{
			"buffer":0,
			"byteLength":112,
			"byteOffset":24336
		},
		{
			"buffer":0,
			"byteLength":24,
			"byteOffset":24448
		},
		{
			"buffer":0,
			"byteLength":24,
			"byteOffset":24472
		},
		{
			"buffer":0,
			"byteLength":32,
			"byteOffset":24496
		},
		{
			"buffer":0,
			"byteLength":24,
			"byteOffset":24528
		},
		{
			"buffer":0,
			"byteLength":24,
			"byteOffset":24552
		},
		{
			"buffer":0,
			"byteLength":112,
			"byteOffset":24576
		},
		{
			"buffer":0,
			"byteLength":24,
			"byteOffset":24688
		},
		{
			"buffer":0,
			"byteLength":24,
			"byteOffset":24712
		},
		{
			"buffer":0,
			"byteLength":112,
			"byteOffset":24736
		},
		{
			"buffer":0,
			"byteLength":84,
			"byteOffset":24848
		},
		{
			"buffer":0,
			"byteLength":24,
			"byteOffset":24932
		},
		{
			"buffer":0,
			"byteLength":112,
			"byteOffset":24956
		},
		{
			"buffer":0,
			"byteLength":24,
			"byteOffset":25068
		},
		{
			"buffer":0,
			"byteLength":24,
			"byteOffset":25092
		},
		{
			"buffer":0,
			"byteLength":112,
			"byteOffset":25116
		},
		{
			"buffer":0,
			"byteLength":24,
			"byteOffset":25228
		},
		{
			"buffer":0,
			"byteLength":24,
			"byteOffset":25252
		},
		{
			"buffer":0,
			"byteLength":32,
			"byteOffset":25276
		},
		{
			"buffer":0,
			"byteLength":24,
			"byteOffset":25308
		},
		{
			"buffer":0,
			"byteLength":24,
			"byteOffset":25332
		},
		{
			"buffer":0,
			"byteLength":112,
			"byteOffset":25356
		},
		{
			"buffer":0,
			"byteLength":24,
			"byteOffset":25468
		},
		{
			"buffer":0,
			"byteLength":24,
			"byteOffset":25492
		},
		{
			"buffer":0,
			"byteLength":112,
			"byteOffset":25516
		},
		{
			"buffer":0,
			"byteLength":24,
			"byteOffset":25628
		},
		{
			"buffer":0,
			"byteLength":24,
			"byteOffset":25652
		},
		{
			"buffer":0,
			"byteLength":32,
			"byteOffset":25676
		},
		{
			"buffer":0,
			"byteLength":24,
			"byteOffset":25708
		},
		{
			"buffer":0,
			"byteLength":32,
			"byteOffset":25732
		},
		{
			"buffer":0,
			"byteLength":24,
			"byteOffset":25764
		},
		{
			"buffer":0,
			"byteLength":24,
			"byteOffset":25788
		},
		{
			"buffer":0,
			"byteLength":112,
			"byteOffset":25812
		},
		{
			"buffer":0,
			"byteLength":24,
			"byteOffset":25924
		},
		{
			"buffer":0,
			"byteLength":24,
			"byteOffset":25948
		},
		{
			"buffer":0,
			"byteLength":112,
			"byteOffset":25972
		},
		{
			"buffer":0,
			"byteLength":24,
			"byteOffset":26084
		},
		{
			"buffer":0,
			"byteLength":24,
			"byteOffset":26108
		},
		{
			"buffer":0,
			"byteLength":32,
			"byteOffset":26132
		},
		{
			"buffer":0,
			"byteLength":24,
			"byteOffset":26164
		}
	],
	"buffers":[
		{
			"byteLength":26188,
			"uri":"GorillaPush.bin"
		}
	]
}
