# Blender 5.1.2
# www.blender.org
mtllib Gorilla.mtl
o Cube_0
v 0.402280 0.007790 -0.107610
v 0.450520 0.007790 -0.027870
v 0.402280 0.007790 0.050910
v 0.354050 0.007790 -0.027870
v 0.312370 0.385740 -0.066010
v 0.227430 0.594540 -0.075130
v 0.364690 0.559810 0.083220
v 0.373060 0.454100 0.072220
v 0.252770 0.558230 0.207480
v 0.294450 0.454100 0.187450
v 0.070250 0.589800 0.083220
v 0.138000 0.454100 0.072220
v 0.389260 0.106080 -0.079600
v 0.337960 0.108250 -0.032140
v 0.203550 0.393230 0.043580
v 0.349030 0.279720 0.063970
v 0.334170 0.332770 0.115520
v 0.238110 0.340620 0.013400
v 0.236690 0.251620 -0.005840
v 0.451770 0.276870 -0.006390
v 0.439180 0.340620 0.012360
v 0.342560 0.297020 -0.130300
v 0.314610 0.391270 0.156890
v 0.381790 0.383360 0.043580
v 0.433700 0.108250 -0.032140
v 0.338120 0.007790 0.096200
v 0.339850 0.064610 0.096970
v 0.380710 0.140680 0.054270
v 0.397480 0.048780 0.219180
v 0.464720 0.064610 0.096970
v 0.367190 0.197440 -0.117810
v 0.267350 0.216520 -0.015860
v 0.466440 0.007790 0.096200
v 0.402280 0.007790 0.220180
v 0.441130 0.224070 -0.015860
v 0.359530 0.224070 0.063770
v 0.249700 1.146000 0.313880
v 0.376920 1.145710 0.030890
v 0.420210 1.225660 -0.038800
v 0.415170 1.396390 0.290940
v 0.283990 1.147130 -0.079800
v 0.409300 1.343820 -0.286210
v 0.191570 0.701750 -0.075310
v 0.000000 0.617030 -0.077750
v 0.000000 0.706090 -0.114520
v 0.000000 1.328580 0.380410
v 0.000000 1.145350 0.370140
v 0.000000 0.617030 0.232620
v 0.197460 0.701750 0.245380
v 0.190900 0.858770 0.272490
v 0.000000 0.858830 0.341990
v 0.000000 0.706090 0.277730
v 0.148490 0.982670 -0.017780
v 0.143050 0.840120 -0.050640
v 0.000000 0.840170 -0.108750
v 0.000000 0.960760 -0.060850
v 0.323750 0.702740 0.073330
v 0.263880 0.840540 0.117430
v 0.516670 1.594920 0.206380
v 0.000000 1.478860 0.384200
v 0.372380 1.809530 -0.006190
v 0.165620 1.803900 -0.154610
v 0.123170 1.877520 -0.120230
v 0.238770 1.837130 0.030130
v 0.000000 1.346950 -0.283820
v 0.000000 1.685240 -0.308250
v 0.441200 1.603170 -0.335980
v 0.736860 1.684910 -0.094980
v 0.526900 1.780310 -0.030440
v 0.239250 1.665610 0.194490
v 0.000000 1.624760 0.283500
v 0.000000 1.798240 -0.229100
v 0.589410 1.455730 -0.255200
v 0.606080 1.435030 0.135770
v 0.797060 1.449450 -0.071470
v 0.692250 1.306360 0.070460
v 0.500550 1.266680 -0.064290
v 0.585840 1.142490 -0.104230
v 0.743360 1.184010 0.001970
v 0.661750 0.812960 -0.099620
v 0.797310 0.791550 -0.236100
v 0.766850 0.679110 -0.252200
v 0.595550 0.770970 -0.070300
v 0.692250 1.306360 -0.295500
v 0.841780 1.348850 -0.111150
v 0.847340 1.217960 -0.138820
v 0.743360 1.184010 -0.268960
v 0.904560 0.791590 -0.099620
v 0.895060 0.652710 -0.090090
v 0.797310 0.791550 -0.008470
v 0.766850 0.679110 0.009470
v 0.781770 1.037020 0.054200
v 0.930840 1.104560 -0.110370
v 0.539870 1.048990 -0.108340
v 0.781770 1.037020 -0.270870
v 0.154520 1.714810 0.173260
v 0.000000 1.676240 0.227150
v 0.000000 1.868160 -0.181520
v 0.000000 1.940970 -0.143460
v 0.119880 1.938260 -0.090860
v 0.108680 1.801650 0.188970
v 0.000000 1.775630 0.264220
v 0.189160 1.868540 0.055630
v 0.684940 0.382440 -0.275060
v 0.757020 0.308420 -0.067660
v 0.693030 0.206160 -0.062840
v 0.630150 0.278970 -0.243930
v 0.659860 0.358000 0.052160
v 0.694410 0.405630 -0.080260
v 0.635990 0.231660 -0.075440
v 0.616090 0.252360 0.057430
v 0.730940 0.563640 -0.272320
v 0.663770 0.573750 -0.075440
v 0.676550 0.563960 0.038770
v 0.877220 0.536250 -0.081030
v 0.614350 0.584890 0.025520
v 0.623100 0.572780 -0.038940
v 0.717830 0.455300 -0.274760
v 0.695470 0.492600 -0.084630
v 0.681240 0.458890 0.047200
v 0.819970 0.413510 -0.073690
v 0.566520 0.564200 0.018430
v 0.575040 0.554120 -0.025060
v 0.538590 0.691320 -0.025390
v 0.493160 0.515290 0.014720
v 0.503680 0.510860 -0.005670
v 0.485450 0.605010 -0.018210
v 0.437860 0.535240 -0.023190
v 0.000000 1.144670 -0.133280
v 0.209650 0.985100 0.297990
v 0.000000 0.962130 0.361740
v 0.297830 1.040320 0.070690
v 0.082540 2.271490 -0.194020
v 0.104580 2.223130 -0.195550
v 0.127530 2.221910 -0.226010
v 0.124620 2.287830 -0.220710
v 0.209100 2.234530 0.119210
v 0.185360 2.313560 0.119210
v 0.167940 2.301040 0.270110
v 0.182750 2.212170 0.329100
v 0.185360 2.402030 0.119210
v 0.167940 2.370390 0.306840
v 0.167940 2.293750 -0.084030
v 0.167940 2.352730 -0.062290
v 0.000000 1.996060 -0.127070
v 0.137390 1.996410 -0.089850
v 0.176990 1.951040 0.358240
v 0.046190 2.042330 0.360600
v 0.000000 1.965720 0.398090
v 0.060480 2.219590 0.364800
v 0.205800 1.978470 0.119210
v 0.200170 2.124880 0.119210
v 0.185360 2.116680 0.300870
v 0.168840 2.065240 -0.104550
v 0.185360 2.147830 -0.102110
v 0.195050 2.129650 0.090400
v 0.201430 1.989950 0.087220
v 0.176650 2.224710 -0.094420
v 0.000000 2.064720 -0.133370
v 0.000000 2.128190 -0.160230
v 0.019340 2.112570 0.335440
v 0.042700 2.047270 0.393680
v 0.000000 2.042530 0.425380
v 0.000000 2.128200 0.373120
v 0.185360 1.903680 0.084660
v 0.132610 1.800880 0.331730
v 0.000000 1.777500 0.376430
v 0.000000 2.317770 -0.184330
v 0.055690 2.301970 -0.187970
v 0.074420 2.342280 -0.207990
v 0.000000 2.360950 -0.204240
v 0.000000 2.328280 0.309130
v 0.000000 2.220880 0.372550
v 0.000000 2.035950 0.372730
v 0.246970 2.007200 0.040410
v 0.269700 2.138500 0.043590
v 0.274820 2.133730 0.072410
v 0.251340 1.995720 0.072410
v 0.231800 2.169620 0.053930
v 0.236920 2.164850 0.082750
v 0.221700 1.970680 0.082750
v 0.217330 1.982160 0.050750
v 0.000000 2.441370 0.119210
v 0.000000 2.397630 0.345860
v 0.000000 2.380950 -0.085510
v 0.056880 2.186280 -0.206980
v 0.090530 2.160730 -0.242350
v 0.192390 2.234570 -0.291320
v 0.189480 2.300480 -0.283660
v 0.000000 2.143490 -0.244190
v 0.012750 2.121110 -0.316790
v 0.119510 2.138350 -0.314940
v 0.000000 2.294180 -0.242770
v 0.035880 2.419720 -0.268350
v 0.030730 2.352950 -0.367370
v 0.000000 2.168390 -0.208980
v 0.000000 2.158400 -0.171530
v 0.033780 2.181960 -0.168850
v 0.062710 2.270820 -0.156530
v 0.040000 2.297920 -0.152150
v 0.101280 2.217150 -0.156560
v 0.000000 2.316940 -0.147480
v 0.000000 2.151040 -0.192050
v 0.045580 2.174680 -0.189380
v 0.077020 2.275440 -0.174660
v 0.047950 2.309100 -0.168490
v 0.110980 2.216610 -0.175680
v 0.000000 2.329080 -0.163740
v 0.176740 2.346600 -0.277750
v 0.126540 2.401050 -0.272100
v 0.037550 2.234420 -0.393260
v 0.037550 2.306830 -0.385690
v 0.000000 2.221760 -0.253870
v 0.029800 2.199370 -0.379890
v 0.156520 2.199530 -0.298610
v -0.402280 0.007790 -0.107610
v -0.354050 0.007790 -0.027870
v -0.402280 0.007790 0.050910
v -0.450520 0.007790 -0.027870
v -0.312370 0.385740 -0.066010
v -0.373060 0.454100 0.072220
v -0.364690 0.559810 0.083220
v -0.227430 0.594540 -0.075130
v -0.294450 0.454100 0.187450
v -0.252770 0.558230 0.207480
v -0.138000 0.454100 0.072220
v -0.070250 0.589800 0.083220
v -0.389260 0.106080 -0.079600
v -0.337960 0.108250 -0.032140
v -0.203550 0.393230 0.043580
v -0.349030 0.279720 0.063970
v -0.236690 0.251620 -0.005840
v -0.238110 0.340620 0.013400
v -0.334170 0.332770 0.115520
v -0.451770 0.276870 -0.006390
v -0.439180 0.340620 0.012360
v -0.342560 0.297020 -0.130300
v -0.314610 0.391270 0.156890
v -0.381790 0.383360 0.043580
v -0.433700 0.108250 -0.032140
v -0.339850 0.064610 0.096970
v -0.338120 0.007790 0.096200
v -0.464720 0.064610 0.096970
v -0.397480 0.048780 0.219180
v -0.380710 0.140680 0.054270
v -0.367190 0.197440 -0.117810
v -0.267350 0.216520 -0.015860
v -0.466440 0.007790 0.096200
v -0.402280 0.007790 0.220180
v -0.441130 0.224070 -0.015860
v -0.359530 0.224070 0.063770
v -0.249700 1.146000 0.313880
v -0.415170 1.396390 0.290940
v -0.420210 1.225660 -0.038800
v -0.376920 1.145710 0.030890
v -0.409300 1.343820 -0.286210
v -0.283990 1.147130 -0.079800
v -0.191570 0.701750 -0.075310
v -0.197460 0.701750 0.245380
v -0.190900 0.858770 0.272490
v -0.148490 0.982670 -0.017780
v -0.143050 0.840120 -0.050640
v -0.323750 0.702740 0.073330
v -0.263880 0.840540 0.117430
v -0.516670 1.594920 0.206380
v -0.372380 1.809530 -0.006190
v -0.238770 1.837130 0.030130
v -0.123170 1.877520 -0.120230
v -0.165620 1.803900 -0.154610
v -0.441200 1.603170 -0.335980
v -0.736860 1.684910 -0.094980
v -0.526900 1.780310 -0.030440
v -0.239250 1.665610 0.194490
v -0.589410 1.455730 -0.255200
v -0.606080 1.435030 0.135770
v -0.797060 1.449450 -0.071470
v -0.692250 1.306360 0.070460
v -0.743360 1.184010 0.001970
v -0.585840 1.142490 -0.104230
v -0.500550 1.266680 -0.064290
v -0.661750 0.812960 -0.099620
v -0.595550 0.770970 -0.070300
v -0.766850 0.679110 -0.252200
v -0.797310 0.791550 -0.236100
v -0.692250 1.306360 -0.295500
v -0.743360 1.184010 -0.268960
v -0.847340 1.217960 -0.138820
v -0.841780 1.348850 -0.111150
v -0.895060 0.652710 -0.090090
v -0.904560 0.791590 -0.099620
v -0.797310 0.791550 -0.008470
v -0.766850 0.679110 0.009470
v -0.930840 1.104560 -0.110370
v -0.781770 1.037020 0.054200
v -0.539870 1.048990 -0.108340
v -0.781770 1.037020 -0.270870
v -0.154520 1.714810 0.173260
v -0.119880 1.938260 -0.090860
v -0.108680 1.801650 0.188970
v -0.189160 1.868540 0.055630
v -0.684940 0.382440 -0.275060
v -0.630150 0.278970 -0.243930
v -0.693030 0.206160 -0.062840
v -0.757020 0.308420 -0.067660
v -0.659860 0.358000 0.052160
v -0.616090 0.252360 0.057430
v -0.635990 0.231660 -0.075440
v -0.694410 0.405630 -0.080260
v -0.663770 0.573750 -0.075440
v -0.730940 0.563640 -0.272320
v -0.877220 0.536250 -0.081030
v -0.676550 0.563960 0.038770
v -0.614350 0.584890 0.025520
v -0.623100 0.572780 -0.038940
v -0.695470 0.492600 -0.084630
v -0.717830 0.455300 -0.274760
v -0.819970 0.413510 -0.073690
v -0.681240 0.458890 0.047200
v -0.575040 0.554120 -0.025060
v -0.566520 0.564200 0.018430
v -0.538590 0.691320 -0.025390
v -0.503680 0.510860 -0.005670
v -0.493160 0.515290 0.014720
v -0.485450 0.605010 -0.018210
v -0.437860 0.535240 -0.023190
v -0.209650 0.985100 0.297990
v -0.297830 1.040320 0.070690
v -0.082540 2.271490 -0.194020
v -0.124620 2.287830 -0.220710
v -0.127530 2.221910 -0.226010
v -0.104580 2.223130 -0.195550
v -0.209100 2.234530 0.119210
v -0.182750 2.212170 0.329100
v -0.167940 2.301040 0.270110
v -0.185360 2.313560 0.119210
v -0.167940 2.370390 0.306840
v -0.185360 2.402030 0.119210
v -0.167940 2.352730 -0.062290
v -0.167940 2.293750 -0.084030
v -0.137390 1.996410 -0.089850
v -0.176990 1.951040 0.358240
v -0.046190 2.042330 0.360600
v -0.060480 2.219590 0.364800
v -0.205800 1.978470 0.119210
v -0.185360 2.116680 0.300870
v -0.200170 2.124880 0.119210
v -0.168840 2.065240 -0.104550
v -0.201430 1.989950 0.087220
v -0.195050 2.129650 0.090400
v -0.185360 2.147830 -0.102110
v -0.176650 2.224710 -0.094420
v -0.042700 2.047270 0.393680
v -0.019340 2.112570 0.335440
v -0.185360 1.903680 0.084660
v -0.132610 1.800880 0.331730
v -0.074420 2.342280 -0.207990
v -0.055690 2.301970 -0.187970
v -0.246970 2.007200 0.040410
v -0.251340 1.995720 0.072410
v -0.274820 2.133730 0.072410
v -0.269700 2.138500 0.043590
v -0.231800 2.169620 0.053930
v -0.236920 2.164850 0.082750
v -0.221700 1.970680 0.082750
v -0.217330 1.982160 0.050750
v -0.090530 2.160730 -0.242350
v -0.056880 2.186280 -0.206980
v -0.189480 2.300480 -0.283660
v -0.192390 2.234570 -0.291320
v -0.119510 2.138350 -0.314940
v -0.012750 2.121110 -0.316790
v -0.030730 2.352950 -0.367370
v -0.035880 2.419720 -0.268350
v -0.033780 2.181960 -0.168850
v -0.040000 2.297920 -0.152150
v -0.062710 2.270820 -0.156530
v -0.101280 2.217150 -0.156560
v -0.045580 2.174680 -0.189380
v -0.047950 2.309100 -0.168490
v -0.077020 2.275440 -0.174660
v -0.110980 2.216610 -0.175680
v -0.176740 2.346600 -0.277750
v -0.126540 2.401050 -0.272100
v -0.037550 2.234420 -0.393260
v -0.037550 2.306830 -0.385690
v -0.156520 2.199530 -0.298610
v -0.029800 2.199370 -0.379890
vn 0.0051 0.3254 -0.9456
vn -0.7817 -0.6227 -0.0351
vn -0.8359 -0.5450 0.0646
vn 0.9861 0.1508 0.0699
vn 0.9082 0.3978 0.1298
vn -0.4427 -0.8966 -0.0082
vn -0.0000 -0.7141 -0.7000
vn 0.2584 -0.1866 -0.9479
vn 0.2766 -0.2455 0.9291
vn -0.0000 -0.7447 0.6674
vn 0.7923 0.5961 -0.1300
vn 0.3378 0.9385 0.0715
vn 0.4683 0.4168 0.7791
vn 0.2701 -0.5322 -0.8024
vn 0.2532 0.3272 -0.9104
vn 0.4068 -0.1049 -0.9075
vn 0.5286 -0.2019 0.8245
vn 0.6334 -0.2428 0.7348
vn 0.5422 -0.8373 -0.0700
vn -0.8878 0.4383 0.1405
vn -0.1553 -0.2124 -0.9648
vn -0.8656 -0.3648 -0.3431
vn -0.1370 -0.3320 0.9333
vn -0.2313 -0.8051 -0.5461
vn -0.1970 -0.2910 0.9362
vn 0.2611 0.1707 0.9501
vn 0.1871 -0.8965 -0.4017
vn -0.1877 -0.6004 0.7774
vn -0.9672 -0.1475 -0.2069
vn -0.4921 -0.4365 -0.7532
vn 0.3967 -0.9147 0.0778
vn -0.8720 -0.4771 -0.1092
vn -0.5204 -0.3719 0.7687
vn 0.1261 0.1363 -0.9826
vn 0.9249 0.3628 0.1139
vn -0.9464 -0.3146 -0.0734
vn 0.7341 -0.0348 0.6782
vn 0.5143 0.1822 0.8381
vn -0.0000 0.0879 0.9961
vn 0.6972 0.1203 0.7067
vn 0.8282 0.1561 0.5383
vn 0.3065 0.1550 0.9392
vn 0.5673 0.1388 0.8117
vn 0.8160 -0.3067 0.4900
vn -0.0000 -0.3686 0.9296
vn -0.0000 0.1912 0.9815
vn 0.6408 0.5623 -0.5226
vn 0.9935 0.1137 -0.0011
vn 0.9607 0.0910 0.2622
vn 0.9357 -0.3283 -0.1291
vn 0.2757 -0.6818 -0.6776
vn 0.9610 -0.2261 0.1590
vn -0.0000 -0.5227 0.8525
vn -0.0051 0.3254 -0.9456
vn 0.8359 -0.5450 0.0646
vn 0.7817 -0.6227 -0.0351
vn -0.9082 0.3978 0.1298
vn -0.9861 0.1508 0.0700
vn 0.4427 -0.8966 -0.0082
vn -0.2584 -0.1866 -0.9478
vn -0.2766 -0.2455 0.9291
vn -0.7923 0.5961 -0.1300
vn -0.4683 0.4168 0.7791
vn -0.3378 0.9385 0.0715
vn -0.2701 -0.5322 -0.8024
vn -0.4068 -0.1049 -0.9075
vn -0.2532 0.3272 -0.9104
vn -0.6334 -0.2428 0.7348
vn -0.5286 -0.2019 0.8245
vn -0.5422 -0.8373 -0.0700
vn 0.8878 0.4383 0.1405
vn 0.8656 -0.3648 -0.3431
vn 0.1553 -0.2124 -0.9648
vn 0.1370 -0.3320 0.9333
vn 0.1970 -0.2910 0.9362
vn 0.2313 -0.8051 -0.5461
vn -0.2611 0.1707 0.9501
vn -0.1871 -0.8965 -0.4017
vn 0.9672 -0.1475 -0.2069
vn 0.1877 -0.6004 0.7774
vn 0.4921 -0.4365 -0.7532
vn 0.8720 -0.4771 -0.1092
vn -0.3967 -0.9147 0.0778
vn 0.5204 -0.3719 0.7687
vn -0.1261 0.1363 -0.9826
vn -0.9249 0.3628 0.1139
vn 0.9464 -0.3145 -0.0734
vn -0.7341 -0.0348 0.6782
vn -0.5142 0.1822 0.8381
vn -0.6972 0.1203 0.7067
vn -0.3065 0.1550 0.9392
vn -0.8282 0.1561 0.5383
vn -0.8160 -0.3067 0.4900
vn -0.5673 0.1388 0.8117
vn -0.6408 0.5623 -0.5226
vn -0.9607 0.0910 0.2622
vn -0.9935 0.1137 -0.0011
vn -0.9357 -0.3283 -0.1291
vn -0.9610 -0.2261 0.1590
vn -0.2757 -0.6818 -0.6776
vn 0.0620 -0.4810 -0.8746
vn 0.7365 -0.6080 -0.2964
vn -0.0000 -1.0000 -0.0000
vn -0.6724 -0.6926 -0.2610
vn 0.9724 0.2278 0.0503
vn 0.2049 -0.3335 0.9202
vn 0.0717 -0.0909 -0.9933
vn -0.9577 -0.1983 -0.2084
vn 0.0642 -0.3586 0.9313
vn 0.1283 -0.3757 0.9178
vn -0.9512 -0.3014 0.0664
vn 0.9924 0.0992 0.0733
vn -0.0096 0.1727 -0.9849
vn 0.2113 -0.4783 0.8524
vn 0.9525 0.2090 -0.2214
vn -0.7280 -0.6711 0.1405
vn -0.9387 0.2415 0.2459
vn -0.0219 0.4906 0.8711
vn -0.0536 0.4205 0.9057
vn 0.8832 0.4232 0.2022
vn 0.0736 -0.2401 -0.9679
vn -0.8815 -0.4711 0.0332
vn 0.7821 -0.6099 0.1275
vn 0.0401 -0.5352 0.8438
vn 0.9989 -0.0105 0.0467
vn 0.0528 -0.2841 0.9573
vn 0.5851 -0.2485 0.7720
vn 0.7992 -0.6000 -0.0363
vn 0.3774 -0.6776 -0.6312
vn 0.4804 0.1501 -0.8641
vn -0.0000 -0.0010 -1.0000
vn -0.0000 0.0391 0.9992
vn -0.0000 -0.0786 0.9969
vn 0.5047 -0.1209 0.8548
vn 0.6320 -0.1593 0.7584
vn -0.0000 -0.2474 0.9689
vn -0.0000 -0.2982 0.9545
vn 0.4727 -0.2336 -0.8497
vn 0.5005 0.2038 -0.8414
vn -0.0000 0.2216 -0.9751
vn -0.0000 -0.0527 -0.9986
vn 0.9535 0.2896 -0.0835
vn 0.9965 0.0756 -0.0361
vn -0.0000 0.3521 0.9360
vn 0.2931 0.9495 0.1117
vn 0.2711 0.7671 -0.5814
vn 0.4829 0.6329 -0.6052
vn 0.5822 0.7794 0.2314
vn -0.0000 -0.4174 -0.9087
vn -0.0000 0.3793 -0.9253
vn 0.1900 0.6608 0.7261
vn -0.0000 0.6360 0.7717
vn -0.0000 0.6574 -0.7535
vn 0.9370 0.3422 0.0700
vn 0.3740 -0.3595 0.8549
vn -0.5629 -0.8265 -0.0017
vn -0.9696 -0.2421 0.0342
vn 0.1980 0.0317 0.9797
vn -0.9887 0.1474 0.0283
vn 0.1787 -0.0351 -0.9833
vn 0.0781 0.0108 -0.9969
vn 0.9588 0.2829 -0.0258
vn 0.9520 0.2874 -0.1055
vn 0.0760 0.0500 -0.9959
vn 0.9936 -0.0934 0.0631
vn 0.9814 -0.1409 0.1303
vn 0.2095 0.0289 0.9774
vn 0.0999 0.0691 0.9926
vn 0.9695 0.2405 0.0464
vn -0.9946 -0.1034 0.0107
vn 0.1142 -0.0204 -0.9933
vn 0.3803 0.4769 0.7924
vn -0.0000 0.3821 0.9241
vn -0.0000 0.5278 -0.8494
vn -0.0000 0.2972 -0.9548
vn 0.6852 0.2828 -0.6712
vn 0.7604 -0.4140 0.5004
vn -0.0000 -0.8676 0.4972
vn 0.9854 0.1618 0.0525
vn -0.3304 -0.3376 -0.8814
vn 0.8765 -0.4592 0.1443
vn -0.4216 -0.0515 0.9053
vn -0.9666 0.2439 -0.0782
vn 0.9622 -0.2143 0.1682
vn -0.1859 -0.3871 -0.9031
vn -0.9925 -0.0065 -0.1223
vn -0.4227 -0.2001 0.8839
vn 0.9282 -0.3247 0.1814
vn 0.1029 -0.4011 0.9102
vn 0.2733 -0.7525 -0.5992
vn -0.9038 0.4152 0.1034
vn -0.8877 0.4342 -0.1533
vn -0.0000 -0.5693 -0.8221
vn 0.6436 -0.2069 0.7368
vn -0.0000 -0.1627 0.9867
vn 0.8876 -0.4363 -0.1473
vn 0.7683 0.3804 0.5148
vn 0.8859 -0.2515 0.3897
vn 0.7217 -0.3618 0.5902
vn 0.6805 0.2486 0.6893
vn 0.9932 0.1162 0.0045
vn 0.7530 0.6574 -0.0289
vn 0.6356 0.3135 0.7055
vn 0.7976 0.2686 -0.5401
vn 0.6965 0.5590 -0.4499
vn -0.0000 -0.0502 -0.9987
vn 0.6650 -0.1579 -0.7299
vn 0.8166 -0.0071 0.5772
vn 0.7047 -0.1946 -0.6823
vn 0.8049 -0.1083 -0.5834
vn 0.8376 0.1079 -0.5355
vn -0.0000 -0.1955 -0.9807
vn -0.0000 -0.2757 -0.9613
vn 0.6024 -0.6503 0.4629
vn -0.0000 -0.7369 0.6760
vn -0.0000 0.9165 0.3999
vn 0.5601 0.6308 0.5370
vn 0.3271 0.4445 0.8339
vn -0.0000 0.7006 0.7135
vn -0.0000 -0.0005 1.0000
vn -0.0000 0.1872 0.9823
vn 0.4720 -0.2996 -0.8291
vn 0.5911 0.3552 -0.7242
vn 0.8646 0.2247 0.4495
vn 0.7938 -0.4811 0.3720
vn -0.2515 0.8373 -0.4854
vn 0.2040 0.8047 0.5575
vn 0.1301 -0.9483 0.2895
vn -0.2756 -0.6050 -0.7470
vn -0.0000 0.9989 -0.0468
vn -0.0000 0.4497 0.8932
vn -0.0000 0.8510 -0.5252
vn 0.4720 -0.8592 0.1976
vn 0.4146 -0.7504 0.5148
vn 0.8464 -0.5150 -0.1356
vn 0.8001 0.5995 -0.0212
vn -0.0000 -0.9233 0.3840
vn -0.4757 -0.7989 -0.3681
vn 0.5340 -0.8061 -0.2548
vn -0.0000 0.4295 -0.9031
vn -0.3213 0.9469 0.0158
vn -0.2859 -0.0574 -0.9565
vn -0.0000 -0.9983 0.0586
vn -0.0000 -0.8887 -0.4584
vn 0.5486 -0.7751 -0.3135
vn 0.8223 0.5521 -0.1378
vn 0.5806 0.8062 -0.1136
vn 0.8996 -0.0723 -0.4308
vn -0.0000 0.9909 -0.1344
vn -0.0000 -0.9983 -0.0591
vn 0.4690 -0.8815 -0.0541
vn 0.7847 0.5411 0.3025
vn 0.5486 0.8094 0.2095
vn 0.9321 -0.2777 0.2326
vn -0.0000 0.9848 0.1734
vn 0.9981 -0.0139 -0.0605
vn 0.5082 0.8544 0.1082
vn -0.2853 -0.4848 -0.8268
vn -0.2960 0.6447 -0.7048
vn -0.0000 0.0595 -0.9982
vn -0.2547 0.3575 -0.8985
vn 0.9653 0.1680 -0.1999
vn -0.0620 -0.4809 -0.8746
vn 0.6724 -0.6926 -0.2610
vn -0.7365 -0.6080 -0.2964
vn -0.9724 0.2278 0.0503
vn -0.2050 -0.3335 0.9202
vn -0.0717 -0.0909 -0.9933
vn 0.9577 -0.1983 -0.2085
vn -0.0642 -0.3586 0.9313
vn 0.9512 -0.3014 0.0664
vn -0.1283 -0.3757 0.9178
vn -0.9924 0.0992 0.0732
vn 0.0096 0.1727 -0.9849
vn -0.2113 -0.4783 0.8524
vn -0.9525 0.2090 -0.2214
vn 0.9387 0.2415 0.2459
vn 0.7280 -0.6711 0.1405
vn -0.8832 0.4232 0.2022
vn 0.0536 0.4205 0.9057
vn 0.0219 0.4906 0.8711
vn -0.0736 -0.2401 -0.9679
vn 0.8815 -0.4711 0.0332
vn -0.7821 -0.6099 0.1275
vn -0.0401 -0.5352 0.8438
vn -0.9989 -0.0105 0.0467
vn -0.0528 -0.2841 0.9573
vn -0.5851 -0.2485 0.7720
vn -0.7992 -0.6000 -0.0363
vn -0.3774 -0.6776 -0.6312
vn -0.4804 0.1501 -0.8641
vn -0.5047 -0.1209 0.8548
vn -0.6320 -0.1593 0.7584
vn -0.4727 -0.2336 -0.8497
vn -0.5005 0.2038 -0.8414
vn -0.9535 0.2896 -0.0835
vn -0.9965 0.0756 -0.0361
vn -0.2931 0.9495 0.1117
vn -0.5822 0.7794 0.2314
vn -0.4829 0.6329 -0.6052
vn -0.2704 0.7669 -0.5819
vn -0.1900 0.6608 0.7261
vn -0.9370 0.3423 0.0700
vn -0.3740 -0.3595 0.8549
vn -0.1980 0.0317 0.9797
vn 0.9696 -0.2421 0.0342
vn 0.5628 -0.8266 -0.0018
vn 0.9887 0.1474 0.0283
vn -0.1787 -0.0351 -0.9833
vn -0.0781 0.0108 -0.9969
vn -0.0760 0.0500 -0.9959
vn -0.9520 0.2874 -0.1055
vn -0.9588 0.2829 -0.0258
vn -0.9814 -0.1409 0.1303
vn -0.9936 -0.0934 0.0631
vn -0.2095 0.0289 0.9774
vn -0.9695 0.2405 0.0464
vn -0.0999 0.0691 0.9926
vn 0.9946 -0.1034 0.0107
vn -0.1142 -0.0204 -0.9933
vn -0.3803 0.4769 0.7924
vn -0.6852 0.2828 -0.6712
vn -0.7604 -0.4140 0.5004
vn -0.9854 0.1618 0.0525
vn 0.3304 -0.3377 -0.8814
vn -0.8765 -0.4592 0.1443
vn 0.4216 -0.0515 0.9053
vn 0.9666 0.2439 -0.0782
vn -0.9622 -0.2143 0.1682
vn 0.9925 -0.0065 -0.1223
vn 0.1859 -0.3871 -0.9031
vn -0.9282 -0.3247 0.1814
vn 0.4227 -0.2001 0.8839
vn -0.2733 -0.7525 -0.5992
vn -0.1029 -0.4011 0.9102
vn 0.9038 0.4152 0.1034
vn 0.8878 0.4343 -0.1521
vn -0.6436 -0.2069 0.7368
vn -0.8876 -0.4363 -0.1473
vn -0.7683 0.3804 0.5148
vn -0.6805 0.2486 0.6893
vn -0.7217 -0.3618 0.5902
vn -0.8859 -0.2515 0.3897
vn -0.9932 0.1162 0.0045
vn -0.6356 0.3135 0.7055
vn -0.7530 0.6574 -0.0289
vn -0.6965 0.5590 -0.4499
vn -0.7976 0.2686 -0.5401
vn -0.6650 -0.1579 -0.7299
vn -0.8166 -0.0071 0.5772
vn -0.7047 -0.1946 -0.6823
vn -0.8049 -0.1083 -0.5834
vn -0.8376 0.1079 -0.5355
vn -0.6024 -0.6503 0.4629
vn -0.3271 0.4445 0.8339
vn -0.5601 0.6309 0.5370
vn -0.4720 -0.2996 -0.8291
vn -0.7938 -0.4811 0.3720
vn -0.8646 0.2247 0.4495
vn -0.5911 0.3552 -0.7242
vn 0.2515 0.8373 -0.4854
vn -0.2040 0.8047 0.5575
vn -0.1301 -0.9483 0.2895
vn 0.2756 -0.6050 -0.7470
vn -0.4146 -0.7504 0.5148
vn -0.4720 -0.8592 0.1976
vn -0.8001 0.5995 -0.0212
vn -0.8464 -0.5150 -0.1356
vn -0.5340 -0.8062 -0.2548
vn 0.4757 -0.7989 -0.3681
vn 0.2859 -0.0574 -0.9565
vn 0.3213 0.9469 0.0158
vn -0.5486 -0.7751 -0.3135
vn -0.5806 0.8062 -0.1136
vn -0.8223 0.5521 -0.1378
vn -0.8995 -0.0723 -0.4308
vn -0.4690 -0.8815 -0.0541
vn -0.5486 0.8094 0.2095
vn -0.7847 0.5411 0.3025
vn -0.9321 -0.2777 0.2326
vn -0.9981 -0.0139 -0.0605
vn -0.5082 0.8544 0.1082
vn 0.2853 -0.4848 -0.8268
vn 0.2960 0.6447 -0.7048
vn -0.9653 0.1680 -0.1999
vn 0.2547 0.3575 -0.8985
s 1
usemtl Material.001
f 5//1 15//2 12//3
f 5//1 8//4 24//5
f 11//6 44//7 6//8
f 9//9 48//10 11//6
f 44//7 11//6 48//10
f 68//11 69//12 59//13
f 42//14 67//15 73//16
f 59//13 40//17 74//18
f 67//15 69//12 68//11
f 39//19 42//14 73//16
f 40//17 39//19 74//18
f 83//20 112//21 113//22
f 116//23 117//24 114//25
f 91//26 116//23 114//25
f 126//27 125//28 128//29
f 107//30 106//31 110//32
f 111//33 110//32 106//31
f 112//21 83//20 82//34
f 24//5 21//35 5//1
f 15//2 5//1 18//36
f 117//24 113//22 114//25
f 147//37 148//38 149//39
f 140//40 139//41 150//42
f 148//38 161//43 162//44
f 163//45 162//44 164//46
f 164//46 162//44 161//43
f 156//47 137//48 152//49
f 165//50 157//51 151//52
f 149//39 148//38 174//53
f 220//54 226//55 230//56
f 220//54 239//57 221//58
f 227//59 223//60 44//7
f 225//61 227//59 48//10
f 44//7 48//10 227//59
f 271//62 265//63 272//64
f 256//65 274//66 270//67
f 265//63 275//68 253//69
f 270//67 271//62 272//64
f 254//70 274//66 256//65
f 253//69 275//68 254//70
f 282//71 309//72 310//73
f 313//74 312//75 314//76
f 292//77 312//75 313//74
f 322//78 325//79 323//80
f 302//81 307//82 303//83
f 306//84 303//83 307//82
f 310//73 283//85 282//71
f 239//57 220//54 236//86
f 230//56 233//87 220//54
f 314//76 312//75 309//72
f 341//88 149//39 342//89
f 333//90 343//91 334//92
f 342//89 352//93 353//94
f 163//45 164//46 352//93
f 164//46 353//94 352//93
f 349//95 346//96 332//97
f 354//98 344//99 348//100
f 149//39 174//53 342//89
f 1//101 2//102 3//103
f 1//101 3//103 4//104
f 5//1 6//8 7//105
f 5//1 7//105 8//4
f 8//4 7//105 9//9
f 8//4 9//9 10//106
f 10//106 9//9 11//6
f 10//106 11//6 12//3
f 13//107 1//101 4//104
f 13//107 4//104 14//108
f 16//109 17//110 18//36
f 16//109 18//36 19//111
f 20//112 21//35 17//110
f 20//112 17//110 16//109
f 22//113 5//1 21//35
f 22//113 21//35 20//112
f 6//8 5//1 12//3
f 6//8 12//3 11//6
f 23//114 10//106 12//3
f 23//114 12//3 15//2
f 24//5 8//4 10//106
f 24//5 10//106 23//114
f 1//101 13//107 25//115
f 1//101 25//115 2//102
f 14//108 4//104 26//116
f 14//108 26//116 27//117
f 25//115 28//118 29//119
f 25//115 29//119 30//120
f 31//121 13//107 14//108
f 31//121 14//108 32//122
f 33//123 30//120 29//119
f 33//123 29//119 34//124
f 34//124 29//119 27//117
f 34//124 27//117 26//116
f 2//102 25//115 30//120
f 2//102 30//120 33//123
f 4//104 3//103 34//124
f 4//104 34//124 26//116
f 3//103 2//102 33//123
f 3//103 33//123 34//124
f 28//118 14//108 27//117
f 28//118 27//117 29//119
f 22//113 31//121 32//122
f 22//113 32//122 19//111
f 13//107 31//121 35//125
f 13//107 35//125 25//115
f 25//115 35//125 36//126
f 25//115 36//126 28//118
f 28//118 36//126 32//122
f 28//118 32//122 14//108
f 37//127 38//128 39//19
f 37//127 39//19 40//17
f 38//128 41//129 42//14
f 38//128 42//14 39//19
f 43//130 6//8 44//7
f 43//130 44//7 45//131
f 37//127 40//17 46//132
f 37//127 46//132 47//133
f 49//134 50//135 51//136
f 49//134 51//136 52//137
f 53//138 54//139 55//140
f 53//138 55//140 56//141
f 57//142 43//130 54//139
f 57//142 54//139 58//143
f 49//134 57//142 58//143
f 49//134 58//143 50//135
f 46//132 40//17 59//13
f 46//132 59//13 60//144
f 61//145 62//146 63//147
f 61//145 63//147 64//148
f 42//14 65//149 66//150
f 42//14 66//150 67//15
f 60//144 59//13 70//151
f 60//144 70//151 71//152
f 59//13 69//12 61//145
f 59//13 61//145 70//151
f 67//15 66//150 72//153
f 67//15 72//153 62//146
f 69//12 67//15 62//146
f 69//12 62//146 61//145
f 73//16 67//15 68//11
f 73//16 68//11 75//154
f 75//154 68//11 59//13
f 75//154 59//13 74//18
f 76//155 77//156 78//157
f 76//155 78//157 79//158
f 80//159 81//160 82//34
f 80//159 82//34 83//20
f 84//161 85//162 86//163
f 84//161 86//163 87//164
f 85//162 76//155 79//158
f 85//162 79//158 86//163
f 77//156 84//161 87//164
f 77//156 87//164 78//157
f 81//160 88//165 89//166
f 81//160 89//166 82//34
f 90//167 80//159 83//20
f 90//167 83//20 91//26
f 88//165 90//167 91//26
f 88//165 91//26 89//166
f 86//163 79//158 92//168
f 86//163 92//168 93//169
f 79//158 78//157 94//170
f 79//158 94//170 92//168
f 87//164 86//163 93//169
f 87//164 93//169 95//171
f 78//157 87//164 95//171
f 78//157 95//171 94//170
f 39//19 73//16 84//161
f 39//19 84//161 77//156
f 75//154 74//18 76//155
f 75//154 76//155 85//162
f 73//16 75//154 85//162
f 73//16 85//162 84//161
f 74//18 39//19 77//156
f 74//18 77//156 76//155
f 71//152 70//151 96//172
f 71//152 96//172 97//173
f 70//151 61//145 64//148
f 70//151 64//148 96//172
f 62//146 72//153 98//174
f 62//146 98//174 63//147
f 63//147 98//174 99//175
f 63//147 99//175 100//176
f 97//173 96//172 101//177
f 97//173 101//177 102//178
f 64//148 63//147 100//176
f 64//148 100//176 103//179
f 96//172 64//148 103//179
f 96//172 103//179 101//177
f 9//9 7//105 57//142
f 9//9 57//142 49//134
f 7//105 6//8 43//130
f 7//105 43//130 57//142
f 9//9 49//134 52//137
f 9//9 52//137 48//10
f 54//139 43//130 45//131
f 54//139 45//131 55//140
f 104//180 105//181 106//31
f 104//180 106//31 107//30
f 108//182 109//183 110//32
f 108//182 110//32 111//33
f 105//181 108//182 111//33
f 105//181 111//33 106//31
f 109//183 104//180 107//30
f 109//183 107//30 110//32
f 89//166 91//26 114//25
f 89//166 114//25 115//184
f 82//34 89//166 115//184
f 82//34 115//184 112//21
f 113//22 112//21 118//185
f 113//22 118//185 119//186
f 115//184 114//25 120//187
f 115//184 120//187 121//188
f 114//25 113//22 119//186
f 114//25 119//186 120//187
f 112//21 115//184 121//188
f 112//21 121//188 118//185
f 117//24 116//23 122//189
f 117//24 122//189 123//190
f 83//20 113//22 117//24
f 83//20 117//24 124//191
f 91//26 83//20 124//191
f 91//26 124//191 116//23
f 123//190 122//189 125//28
f 123//190 125//28 126//27
f 124//191 117//24 123//190
f 124//191 123//190 127//192
f 116//23 124//191 127//192
f 116//23 127//192 122//189
f 127//192 123//190 126//27
f 127//192 126//27 128//29
f 122//189 127//192 128//29
f 122//189 128//29 125//28
f 93//169 92//168 90//167
f 93//169 90//167 88//165
f 92//168 94//170 80//159
f 92//168 80//159 90//167
f 95//171 93//169 88//165
f 95//171 88//165 81//160
f 94//170 95//171 81//160
f 94//170 81//160 80//159
f 21//35 24//5 23//114
f 21//35 23//114 17//110
f 17//110 23//114 15//2
f 17//110 15//2 18//36
f 5//1 22//113 19//111
f 5//1 19//111 18//36
f 31//121 22//113 20//112
f 31//121 20//112 35//125
f 35//125 20//112 16//109
f 35//125 16//109 36//126
f 36//126 16//109 19//111
f 36//126 19//111 32//122
f 119//186 118//185 104//180
f 119//186 104//180 109//183
f 121//188 120//187 108//182
f 121//188 108//182 105//181
f 120//187 119//186 109//183
f 120//187 109//183 108//182
f 118//185 121//188 105//181
f 118//185 105//181 104//180
f 41//129 53//138 56//141
f 41//129 56//141 129//193
f 50//135 130//194 131//195
f 50//135 131//195 51//136
f 58//143 54//139 53//138
f 58//143 53//138 132//196
f 50//135 58//143 132//196
f 50//135 132//196 130//194
f 42//14 41//129 129//193
f 42//14 129//193 65//149
f 130//194 37//127 47//133
f 130//194 47//133 131//195
f 132//196 53//138 41//129
f 132//196 41//129 38//128
f 130//194 132//196 38//128
f 130//194 38//128 37//127
f 133//197 134//198 135//199
f 133//197 135//199 136//200
f 137//48 138//201 139//41
f 137//48 139//41 140//40
f 139//41 138//201 141//202
f 139//41 141//202 142//203
f 138//201 143//204 144//205
f 138//201 144//205 141//202
f 145//206 146//207 100//176
f 145//206 100//176 99//175
f 151//52 152//49 153//208
f 151//52 153//208 147//37
f 154//209 155//210 156//47
f 154//209 156//47 157//51
f 158//211 143//204 138//201
f 158//211 138//201 137//48
f 159//212 160//213 155//210
f 159//212 155//210 154//209
f 145//206 159//212 154//209
f 145//206 154//209 146//207
f 146//207 154//209 157//51
f 146//207 157//51 165//50
f 165//50 151//52 147//37
f 165//50 147//37 166//214
f 166//214 147//37 149//39
f 166//214 149//39 167//215
f 155//210 158//211 137//48
f 155//210 137//48 156//47
f 153//208 140//40 150//42
f 153//208 150//42 161//43
f 152//49 137//48 140//40
f 152//49 140//40 153//208
f 168//216 169//217 170//218
f 168//216 170//218 171//219
f 150//42 139//41 172//220
f 150//42 172//220 173//221
f 161//43 150//42 173//221
f 161//43 173//221 164//46
f 174//53 148//38 162//44
f 174//53 162//44 163//45
f 148//38 147//37 153//208
f 148//38 153//208 161//43
f 175//222 176//223 177//224
f 175//222 177//224 178//225
f 179//226 180//227 177//224
f 179//226 177//224 176//223
f 180//227 181//228 178//225
f 180//227 178//225 177//224
f 182//229 179//226 176//223
f 182//229 176//223 175//222
f 181//228 182//229 175//222
f 181//228 175//222 178//225
f 151//52 157//51 182//229
f 151//52 182//229 181//228
f 157//51 156//47 179//226
f 157//51 179//226 182//229
f 152//49 151//52 181//228
f 152//49 181//228 180//227
f 156//47 152//49 180//227
f 156//47 180//227 179//226
f 102//178 101//177 166//214
f 102//178 166//214 167//215
f 100//176 146//207 165//50
f 100//176 165//50 103//179
f 166//214 101//177 103//179
f 166//214 103//179 165//50
f 141//202 183//230 184//231
f 141//202 184//231 142//203
f 144//205 185//232 183//230
f 144//205 183//230 141//202
f 134//198 186//233 187//234
f 134//198 187//234 135//199
f 172//220 139//41 142//203
f 172//220 142//203 184//231
f 136//200 135//199 188//235
f 136//200 188//235 189//236
f 187//234 190//237 191//238
f 187//234 191//238 192//239
f 193//240 171//219 194//241
f 193//240 194//241 195//242
f 169//217 133//197 136//200
f 169//217 136//200 170//218
f 186//233 196//243 190//237
f 186//233 190//237 187//234
f 155//210 160//213 197//244
f 155//210 197//244 198//245
f 144//205 143//204 199//246
f 144//205 199//246 200//247
f 158//211 155//210 198//245
f 158//211 198//245 201//248
f 185//232 144//205 200//247
f 185//232 200//247 202//249
f 143//204 158//211 201//248
f 143//204 201//248 199//246
f 198//245 197//244 203//250
f 198//245 203//250 204//251
f 200//247 199//246 205//252
f 200//247 205//252 206//253
f 201//248 198//245 204//251
f 201//248 204//251 207//254
f 202//249 200//247 206//253
f 202//249 206//253 208//255
f 199//246 201//248 207//254
f 199//246 207//254 205//252
f 204//251 203//250 196//243
f 204//251 196//243 186//233
f 206//253 205//252 133//197
f 206//253 133//197 169//217
f 207//254 204//251 186//233
f 207//254 186//233 134//198
f 208//255 206//253 169//217
f 208//255 169//217 168//216
f 205//252 207//254 134//198
f 205//252 134//198 133//197
f 209//256 195//242 194//241
f 209//256 194//241 210//257
f 136//200 193//240 195//242
f 136//200 195//242 209//256
f 171//219 170//218 210//257
f 171//219 210//257 194//241
f 170//218 136//200 209//256
f 170//218 209//256 210//257
f 211//258 212//259 189//236
f 211//258 189//236 188//235
f 193//240 136//200 189//236
f 193//240 189//236 212//259
f 213//260 193//240 212//259
f 213//260 212//259 211//258
f 135//199 213//260 211//258
f 135//199 211//258 188//235
f 191//238 214//261 215//262
f 191//238 215//262 192//239
f 190//237 213//260 214//261
f 190//237 214//261 191//238
f 135//199 187//234 192//239
f 135//199 192//239 215//262
f 213//260 135//199 215//262
f 213//260 215//262 214//261
f 216//263 217//264 218//103
f 216//263 218//103 219//265
f 220//54 221//58 222//266
f 220//54 222//266 223//60
f 221//58 224//267 225//61
f 221//58 225//61 222//266
f 224//267 226//55 227//59
f 224//267 227//59 225//61
f 228//268 229//269 217//264
f 228//268 217//264 216//263
f 231//270 232//271 233//87
f 231//270 233//87 234//272
f 235//273 231//270 234//272
f 235//273 234//272 236//86
f 237//274 235//273 236//86
f 237//274 236//86 220//54
f 223//60 227//59 226//55
f 223//60 226//55 220//54
f 238//275 230//56 226//55
f 238//275 226//55 224//267
f 239//57 238//275 224//267
f 239//57 224//267 221//58
f 216//263 219//265 240//276
f 216//263 240//276 228//268
f 229//269 241//277 242//278
f 229//269 242//278 217//264
f 240//276 243//279 244//280
f 240//276 244//280 245//281
f 246//282 247//283 229//269
f 246//282 229//269 228//268
f 248//284 249//285 244//280
f 248//284 244//280 243//279
f 249//285 242//278 241//277
f 249//285 241//277 244//280
f 219//265 248//284 243//279
f 219//265 243//279 240//276
f 217//264 242//278 249//285
f 217//264 249//285 218//103
f 218//103 249//285 248//284
f 218//103 248//284 219//265
f 245//281 244//280 241//277
f 245//281 241//277 229//269
f 237//274 232//271 247//283
f 237//274 247//283 246//282
f 228//268 240//276 250//286
f 228//268 250//286 246//282
f 240//276 245//281 251//287
f 240//276 251//287 250//286
f 245//281 229//269 247//283
f 245//281 247//283 251//287
f 252//288 253//69 254//70
f 252//288 254//70 255//289
f 255//289 254//70 256//65
f 255//289 256//65 257//290
f 258//291 45//131 44//7
f 258//291 44//7 223//60
f 252//288 47//133 46//132
f 252//288 46//132 253//69
f 259//292 52//137 51//136
f 259//292 51//136 260//293
f 261//294 56//141 55//140
f 261//294 55//140 262//295
f 263//296 264//297 262//295
f 263//296 262//295 258//291
f 259//292 260//293 264//297
f 259//292 264//297 263//296
f 46//132 60//144 265//63
f 46//132 265//63 253//69
f 266//298 267//299 268//300
f 266//298 268//300 269//301
f 256//65 270//67 66//150
f 256//65 66//150 65//149
f 60//144 71//152 273//302
f 60//144 273//302 265//63
f 265//63 273//302 266//298
f 265//63 266//298 272//64
f 270//67 269//301 72//153
f 270//67 72//153 66//150
f 272//64 266//298 269//301
f 272//64 269//301 270//67
f 274//66 276//303 271//62
f 274//66 271//62 270//67
f 276//303 275//68 265//63
f 276//303 265//63 271//62
f 277//304 278//305 279//306
f 277//304 279//306 280//307
f 281//308 282//71 283//85
f 281//308 283//85 284//309
f 285//310 286//311 287//312
f 285//310 287//312 288//313
f 288//313 287//312 278//305
f 288//313 278//305 277//304
f 280//307 279//306 286//311
f 280//307 286//311 285//310
f 284//309 283//85 289//314
f 284//309 289//314 290//315
f 291//316 292//77 282//71
f 291//316 282//71 281//308
f 290//315 289//314 292//77
f 290//315 292//77 291//316
f 287//312 293//317 294//318
f 287//312 294//318 278//305
f 278//305 294//318 295//319
f 278//305 295//319 279//306
f 286//311 296//320 293//317
f 286//311 293//317 287//312
f 279//306 295//319 296//320
f 279//306 296//320 286//311
f 254//70 280//307 285//310
f 254//70 285//310 274//66
f 276//303 288//313 277//304
f 276//303 277//304 275//68
f 274//66 285//310 288//313
f 274//66 288//313 276//303
f 275//68 277//304 280//307
f 275//68 280//307 254//70
f 71//152 97//173 297//321
f 71//152 297//321 273//302
f 273//302 297//321 267//299
f 273//302 267//299 266//298
f 269//301 268//300 98//174
f 269//301 98//174 72//153
f 268//300 298//322 99//175
f 268//300 99//175 98//174
f 97//173 102//178 299//323
f 97//173 299//323 297//321
f 267//299 300//324 298//322
f 267//299 298//322 268//300
f 297//321 299//323 300//324
f 297//321 300//324 267//299
f 225//61 259//292 263//296
f 225//61 263//296 222//266
f 222//266 263//296 258//291
f 222//266 258//291 223//60
f 225//61 48//10 52//137
f 225//61 52//137 259//292
f 262//295 55//140 45//131
f 262//295 45//131 258//291
f 301//325 302//81 303//83
f 301//325 303//83 304//326
f 305//327 306//84 307//82
f 305//327 307//82 308//328
f 304//326 303//83 306//84
f 304//326 306//84 305//327
f 308//328 307//82 302//81
f 308//328 302//81 301//325
f 289//314 311//329 312//75
f 289//314 312//75 292//77
f 283//85 310//73 311//329
f 283//85 311//329 289//314
f 309//72 315//330 316//331
f 309//72 316//331 310//73
f 311//329 317//332 318//333
f 311//329 318//333 312//75
f 312//75 318//333 315//330
f 312//75 315//330 309//72
f 310//73 316//331 317//332
f 310//73 317//332 311//329
f 314//76 319//334 320//335
f 314//76 320//335 313//74
f 282//71 321//336 314//76
f 282//71 314//76 309//72
f 292//77 313//74 321//336
f 292//77 321//336 282//71
f 319//334 322//78 323//80
f 319//334 323//80 320//335
f 321//336 324//337 319//334
f 321//336 319//334 314//76
f 313//74 320//335 324//337
f 313//74 324//337 321//336
f 324//337 325//79 322//78
f 324//337 322//78 319//334
f 320//335 323//80 325//79
f 320//335 325//79 324//337
f 293//317 290//315 291//316
f 293//317 291//316 294//318
f 294//318 291//316 281//308
f 294//318 281//308 295//319
f 296//320 284//309 290//315
f 296//320 290//315 293//317
f 295//319 281//308 284//309
f 295//319 284//309 296//320
f 236//86 234//272 238//275
f 236//86 238//275 239//57
f 234//272 233//87 230//56
f 234//272 230//56 238//275
f 220//54 233//87 232//271
f 220//54 232//271 237//274
f 246//282 250//286 235//273
f 246//282 235//273 237//274
f 250//286 251//287 231//270
f 250//286 231//270 235//273
f 251//287 247//283 232//271
f 251//287 232//271 231//270
f 315//330 308//328 301//325
f 315//330 301//325 316//331
f 317//332 304//326 305//327
f 317//332 305//327 318//333
f 318//333 305//327 308//328
f 318//333 308//328 315//330
f 316//331 301//325 304//326
f 316//331 304//326 317//332
f 257//290 129//193 56//141
f 257//290 56//141 261//294
f 260//293 51//136 131//195
f 260//293 131//195 326//338
f 264//297 327//339 261//294
f 264//297 261//294 262//295
f 260//293 326//338 327//339
f 260//293 327//339 264//297
f 256//65 65//149 129//193
f 256//65 129//193 257//290
f 326//338 131//195 47//133
f 326//338 47//133 252//288
f 327//339 255//289 257//290
f 327//339 257//290 261//294
f 326//338 252//288 255//289
f 326//338 255//289 327//339
f 328//340 329//341 330//342
f 328//340 330//342 331//343
f 332//97 333//90 334//92
f 332//97 334//92 335//344
f 334//92 336//345 337//346
f 334//92 337//346 335//344
f 335//344 337//346 338//347
f 335//344 338//347 339//348
f 145//206 99//175 298//322
f 145//206 298//322 340//349
f 344//99 341//88 345//350
f 344//99 345//350 346//96
f 347//351 348//100 349//95
f 347//351 349//95 350//352
f 351//353 332//97 335//344
f 351//353 335//344 339//348
f 159//212 347//351 350//352
f 159//212 350//352 160//213
f 145//206 340//349 347//351
f 145//206 347//351 159//212
f 340//349 354//98 348//100
f 340//349 348//100 347//351
f 354//98 355//354 341//88
f 354//98 341//88 344//99
f 355//354 167//215 149//39
f 355//354 149//39 341//88
f 350//352 349//95 332//97
f 350//352 332//97 351//353
f 345//350 353//94 343//91
f 345//350 343//91 333//90
f 346//96 345//350 333//90
f 346//96 333//90 332//97
f 168//216 171//219 356//355
f 168//216 356//355 357//356
f 343//91 173//221 172//220
f 343//91 172//220 334//92
f 353//94 164//46 173//221
f 353//94 173//221 343//91
f 174//53 163//45 352//93
f 174//53 352//93 342//89
f 342//89 353//94 345//350
f 342//89 345//350 341//88
f 358//357 359//358 360//359
f 358//357 360//359 361//360
f 362//361 361//360 360//359
f 362//361 360//359 363//362
f 363//362 360//359 359//358
f 363//362 359//358 364//363
f 365//364 358//357 361//360
f 365//364 361//360 362//361
f 364//363 359//358 358//357
f 364//363 358//357 365//364
f 344//99 364//363 365//364
f 344//99 365//364 348//100
f 348//100 365//364 362//361
f 348//100 362//361 349//95
f 346//96 363//362 364//363
f 346//96 364//363 344//99
f 349//95 362//361 363//362
f 349//95 363//362 346//96
f 102//178 167//215 355//354
f 102//178 355//354 299//323
f 298//322 300//324 354//98
f 298//322 354//98 340//349
f 355//354 354//98 300//324
f 355//354 300//324 299//323
f 337//346 336//345 184//231
f 337//346 184//231 183//230
f 338//347 337//346 183//230
f 338//347 183//230 185//232
f 331//343 330//342 366//365
f 331//343 366//365 367//366
f 172//220 184//231 336//345
f 172//220 336//345 334//92
f 329//341 368//367 369//368
f 329//341 369//368 330//342
f 366//365 370//369 371//370
f 366//365 371//370 190//237
f 193//240 372//371 373//372
f 193//240 373//372 171//219
f 357//356 356//355 329//341
f 357//356 329//341 328//340
f 367//366 366//365 190//237
f 367//366 190//237 196//243
f 350//352 374//373 197//244
f 350//352 197//244 160//213
f 338//347 375//374 376//375
f 338//347 376//375 339//348
f 351//353 377//376 374//373
f 351//353 374//373 350//352
f 185//232 202//249 375//374
f 185//232 375//374 338//347
f 339//348 376//375 377//376
f 339//348 377//376 351//353
f 374//373 378//377 203//250
f 374//373 203//250 197//244
f 375//374 379//378 380//379
f 375//374 380//379 376//375
f 377//376 381//380 378//377
f 377//376 378//377 374//373
f 202//249 208//255 379//378
f 202//249 379//378 375//374
f 376//375 380//379 381//380
f 376//375 381//380 377//376
f 378//377 367//366 196//243
f 378//377 196//243 203//250
f 379//378 357//356 328//340
f 379//378 328//340 380//379
f 381//380 331//343 367//366
f 381//380 367//366 378//377
f 208//255 168//216 357//356
f 208//255 357//356 379//378
f 380//379 328//340 331//343
f 380//379 331//343 381//380
f 382//381 383//382 373//372
f 382//381 373//372 372//371
f 329//341 382//381 372//371
f 329//341 372//371 193//240
f 171//219 373//372 383//382
f 171//219 383//382 356//355
f 356//355 383//382 382//381
f 356//355 382//381 329//341
f 384//383 369//368 368//367
f 384//383 368//367 385//384
f 193//240 385//384 368//367
f 193//240 368//367 329//341
f 213//260 384//383 385//384
f 213//260 385//384 193//240
f 330//342 369//368 384//383
f 330//342 384//383 213//260
f 371//370 370//369 386//385
f 371//370 386//385 387//386
f 190//237 371//370 387//386
f 190//237 387//386 213//260
f 330//342 386//385 370//369
f 330//342 370//369 366//365
f 213//260 387//386 386//385
f 213//260 386//385 330//342
