{
	"asset":{
		"generator":"Khronos glTF Blender I/O v5.2.39",
		"version":"2.0"
	},
	"scene":0,
	"scenes":[
		{
			"name":"Scene",
			"nodes":[
				21
			]
		}
	],
	"nodes":[
		{
			"name":"\u30dc\u30fc\u30f3.003",
			"translation":[
				0,
				0.7226481437683105,
				0
			]
		},
		{
			"name":"\u30dc\u30fc\u30f3.007",
			"rotation":[
				-2.2806403432440447e-09,
				-2.281001165727048e-09,
				-0.010987061075866222,
				0.9999396800994873
			],
			"scale":[
				0.9999998807907104,
				0.9999998211860657,
				1
			],
			"translation":[
				-2.5331974029541016e-07,
				1.241072654724121,
				3.6637359812630166e-14
			]
		},
		{
			"children":[
				1
			],
			"name":"\u30dc\u30fc\u30f3.006",
			"rotation":[
				6.757361337150769e-09,
				1.1822348966461504e-07,
				0.020885495468974113,
				0.9997819066047668
			],
			"scale":[
				0.9999999403953552,
				0.9999999403953552,
				1
			],
			"translation":[
				-1.9744038581848145e-07,
				1.3773916959762573,
				1.5987211554602254e-14
			]
		},
		{
			"children":[
				2
			],
			"name":"\u30dc\u30fc\u30f3.005",
			"rotation":[
				1.3530778719683667e-09,
				-6.703398724994258e-08,
				0.0036105355247855186,
				0.9999935030937195
			],
			"translation":[
				-5.960464477539063e-08,
				1.009348750114441,
				-1.554312234475219e-14
			]
		},
		{
			"children":[
				3
			],
			"name":"\u30dc\u30fc\u30f3.004",
			"rotation":[
				-6.339989511161548e-08,
				-5.9176723965492783e-08,
				-0.7165951728820801,
				0.697489321231842
			],
			"translation":[
				0,
				0.7226481437683105,
				0
			]
		},
		{
			"name":"\u30dc\u30fc\u30f3.015",
			"rotation":[
				0.007769026793539524,
				-0.7070640325546265,
				0.0077690244652330875,
				0.7070642113685608
			],
			"scale":[
				0.9999998807907104,
				0.9999996423721313,
				0.9999998211860657
			],
			"translation":[
				2.5331974029541016e-07,
				1.241072654724121,
				1.9895196601282805e-13
			]
		},
		{
			"children":[
				5
			],
			"name":"\u30dc\u30fc\u30f3.014",
			"rotation":[
				-3.884969235201652e-09,
				-8.750385660505344e-08,
				-0.020885497331619263,
				0.9997819066047668
			],
			"scale":[
				0.9999999403953552,
				0.9999999403953552,
				1
			],
			"translation":[
				1.9744038581848145e-07,
				1.3773916959762573,
				-1.9095836023552692e-14
			]
		},
		{
			"children":[
				6
			],
			"name":"\u30dc\u30fc\u30f3.013",
			"rotation":[
				2.6334617819756545e-10,
				-1.7142708941264573e-07,
				-0.0036105355247855186,
				0.9999935030937195
			],
			"translation":[
				5.960464477539063e-08,
				1.009348750114441,
				6.261657858885883e-14
			]
		},
		{
			"children":[
				7
			],
			"name":"\u30dc\u30fc\u30f3.012",
			"rotation":[
				-4.069918091431646e-08,
				3.7081253623227894e-08,
				0.7165951728820801,
				0.697489321231842
			],
			"translation":[
				0,
				0.7226481437683105,
				0
			]
		},
		{
			"children":[
				0,
				4,
				8
			],
			"name":"\u30dc\u30fc\u30f3.002",
			"translation":[
				0,
				0.8862662315368652,
				0
			]
		},
		{
			"children":[
				9
			],
			"name":"\u30dc\u30fc\u30f3.001",
			"translation":[
				0,
				1,
				0
			]
		},
		{
			"name":"\u30dc\u30fc\u30f3.011",
			"rotation":[
				-0.0028630555607378483,
				-7.131635015866777e-08,
				-0.6055727005004883,
				0.7957848310470581
			],
			"scale":[
				1.0000001192092896,
				1,
				1
			],
			"translation":[
				9.769962616701378e-14,
				2.2975382804870605,
				3.81843960894912e-08
			]
		},
		{
			"children":[
				11
			],
			"name":"\u30dc\u30fc\u30f3.010",
			"rotation":[
				0.02821730636060238,
				-6.791949402895625e-08,
				-1.0090598578926802e-08,
				0.9996018409729004
			],
			"scale":[
				1,
				0.9999999403953552,
				1
			],
			"translation":[
				-1.4210854715202004e-14,
				1.7329695224761963,
				-4.470344094897882e-08
			]
		},
		{
			"children":[
				12
			],
			"name":"\u30dc\u30fc\u30f3.009",
			"rotation":[
				-0.6653135418891907,
				-8.461688594252337e-08,
				1.311357209488051e-07,
				0.7465640902519226
			],
			"scale":[
				1,
				0.9999999403953552,
				0.9999999403953552
			],
			"translation":[
				4.8049934460426234e-15,
				0.6209481358528137,
				-1.6391277313232422e-07
			]
		},
		{
			"children":[
				13
			],
			"name":"\u30dc\u30fc\u30f3.008",
			"rotation":[
				-0.5370537042617798,
				-0.4599708914756775,
				-0.5370538234710693,
				0.4599708914756775
			],
			"scale":[
				1.0000001192092896,
				1.0000001192092896,
				1
			]
		},
		{
			"name":"\u30dc\u30fc\u30f3.019",
			"rotation":[
				0.010738523676991463,
				0.010350007563829422,
				-0.6054843068122864,
				0.7957175374031067
			],
			"translation":[
				-1.0658141036401503e-14,
				2.2975385189056396,
				-2.9103699006327588e-08
			]
		},
		{
			"children":[
				15
			],
			"name":"\u30dc\u30fc\u30f3.018",
			"rotation":[
				-0.028217321261763573,
				-4.909566087007988e-08,
				4.3163579377392125e-09,
				0.9996018409729004
			],
			"scale":[
				1,
				1,
				1.0000001192092896
			],
			"translation":[
				-2.1316282072803006e-14,
				1.732970118522644,
				-3.725287101019603e-08
			]
		},
		{
			"children":[
				16
			],
			"name":"\u30dc\u30fc\u30f3.017",
			"rotation":[
				0.6653136014938354,
				-3.459668462824084e-08,
				-3.441193996422953e-08,
				0.7465640306472778
			],
			"translation":[
				1.3322676295501878e-15,
				0.6209481358528137,
				5.21540641784668e-08
			]
		},
		{
			"children":[
				17
			],
			"name":"\u30dc\u30fc\u30f3.016",
			"rotation":[
				0.5370537638664246,
				-0.45997101068496704,
				0.537053644657135,
				0.45997095108032227
			],
			"scale":[
				1,
				0.9999999403953552,
				1
			]
		},
		{
			"children":[
				10,
				14,
				18
			],
			"name":"\u30dc\u30fc\u30f3"
		},
		{
			"mesh":0,
			"name":"\u7acb\u65b9\u4f53",
			"skin":0
		},
		{
			"children":[
				20,
				19
			],
			"name":"\u30a2\u30fc\u30de\u30c1\u30e5\u30a2",
			"translation":[
				0,
				3.916017532348633,
				0
			]
		}
	],
	"animations":[
		{
			"channels":[
				{
					"sampler":0,
					"target":{
						"node":19,
						"path":"translation"
					}
				},
				{
					"sampler":1,
					"target":{
						"node":19,
						"path":"rotation"
					}
				},
				{
					"sampler":2,
					"target":{
						"node":19,
						"path":"scale"
					}
				},
				{
					"sampler":3,
					"target":{
						"node":10,
						"path":"translation"
					}
				},
				{
					"sampler":4,
					"target":{
						"node":10,
						"path":"rotation"
					}
				},
				{
					"sampler":5,
					"target":{
						"node":10,
						"path":"scale"
					}
				},
				{
					"sampler":6,
					"target":{
						"node":9,
						"path":"translation"
					}
				},
				{
					"sampler":7,
					"target":{
						"node":9,
						"path":"rotation"
					}
				},
				{
					"sampler":8,
					"target":{
						"node":9,
						"path":"scale"
					}
				},
				{
					"sampler":9,
					"target":{
						"node":0,
						"path":"translation"
					}
				},
				{
					"sampler":10,
					"target":{
						"node":0,
						"path":"rotation"
					}
				},
				{
					"sampler":11,
					"target":{
						"node":0,
						"path":"scale"
					}
				},
				{
					"sampler":12,
					"target":{
						"node":4,
						"path":"translation"
					}
				},
				{
					"sampler":13,
					"target":{
						"node":4,
						"path":"rotation"
					}
				},
				{
					"sampler":14,
					"target":{
						"node":4,
						"path":"scale"
					}
				},
				{
					"sampler":15,
					"target":{
						"node":3,
						"path":"translation"
					}
				},
				{
					"sampler":16,
					"target":{
						"node":3,
						"path":"rotation"
					}
				},
				{
					"sampler":17,
					"target":{
						"node":3,
						"path":"scale"
					}
				},
				{
					"sampler":18,
					"target":{
						"node":2,
						"path":"translation"
					}
				},
				{
					"sampler":19,
					"target":{
						"node":2,
						"path":"rotation"
					}
				},
				{
					"sampler":20,
					"target":{
						"node":2,
						"path":"scale"
					}
				},
				{
					"sampler":21,
					"target":{
						"node":1,
						"path":"translation"
					}
				},
				{
					"sampler":22,
					"target":{
						"node":1,
						"path":"rotation"
					}
				},
				{
					"sampler":23,
					"target":{
						"node":1,
						"path":"scale"
					}
				},
				{
					"sampler":24,
					"target":{
						"node":8,
						"path":"translation"
					}
				},
				{
					"sampler":25,
					"target":{
						"node":8,
						"path":"rotation"
					}
				},
				{
					"sampler":26,
					"target":{
						"node":8,
						"path":"scale"
					}
				},
				{
					"sampler":27,
					"target":{
						"node":7,
						"path":"translation"
					}
				},
				{
					"sampler":28,
					"target":{
						"node":7,
						"path":"rotation"
					}
				},
				{
					"sampler":29,
					"target":{
						"node":7,
						"path":"scale"
					}
				},
				{
					"sampler":30,
					"target":{
						"node":6,
						"path":"translation"
					}
				},
				{
					"sampler":31,
					"target":{
						"node":6,
						"path":"rotation"
					}
				},
				{
					"sampler":32,
					"target":{
						"node":6,
						"path":"scale"
					}
				},
				{
					"sampler":33,
					"target":{
						"node":5,
						"path":"translation"
					}
				},
				{
					"sampler":34,
					"target":{
						"node":5,
						"path":"rotation"
					}
				},
				{
					"sampler":35,
					"target":{
						"node":5,
						"path":"scale"
					}
				},
				{
					"sampler":36,
					"target":{
						"node":14,
						"path":"translation"
					}
				},
				{
					"sampler":37,
					"target":{
						"node":14,
						"path":"rotation"
					}
				},
				{
					"sampler":38,
					"target":{
						"node":14,
						"path":"scale"
					}
				},
				{
					"sampler":39,
					"target":{
						"node":13,
						"path":"translation"
					}
				},
				{
					"sampler":40,
					"target":{
						"node":13,
						"path":"rotation"
					}
				},
				{
					"sampler":41,
					"target":{
						"node":13,
						"path":"scale"
					}
				},
				{
					"sampler":42,
					"target":{
						"node":12,
						"path":"translation"
					}
				},
				{
					"sampler":43,
					"target":{
						"node":12,
						"path":"rotation"
					}
				},
				{
					"sampler":44,
					"target":{
						"node":12,
						"path":"scale"
					}
				},
				{
					"sampler":45,
					"target":{
						"node":11,
						"path":"translation"
					}
				},
				{
					"sampler":46,
					"target":{
						"node":11,
						"path":"rotation"
					}
				},
				{
					"sampler":47,
					"target":{
						"node":11,
						"path":"scale"
					}
				},
				{
					"sampler":48,
					"target":{
						"node":18,
						"path":"translation"
					}
				},
				{
					"sampler":49,
					"target":{
						"node":18,
						"path":"rotation"
					}
				},
				{
					"sampler":50,
					"target":{
						"node":18,
						"path":"scale"
					}
				},
				{
					"sampler":51,
					"target":{
						"node":17,
						"path":"translation"
					}
				},
				{
					"sampler":52,
					"target":{
						"node":17,
						"path":"rotation"
					}
				},
				{
					"sampler":53,
					"target":{
						"node":17,
						"path":"scale"
					}
				},
				{
					"sampler":54,
					"target":{
						"node":16,
						"path":"translation"
					}
				},
				{
					"sampler":55,
					"target":{
						"node":16,
						"path":"rotation"
					}
				},
				{
					"sampler":56,
					"target":{
						"node":16,
						"path":"scale"
					}
				},
				{
					"sampler":57,
					"target":{
						"node":15,
						"path":"translation"
					}
				},
				{
					"sampler":58,
					"target":{
						"node":15,
						"path":"rotation"
					}
				},
				{
					"sampler":59,
					"target":{
						"node":15,
						"path":"scale"
					}
				}
			],
			"name":"\u30a2\u30fc\u30de\u30c1\u30e5\u30a2\u30a2\u30af\u30b7\u30e7\u30f3",
			"samplers":[
				{
					"input":15,
					"interpolation":"LINEAR",
					"output":16
				},
				{
					"input":15,
					"interpolation":"LINEAR",
					"output":17
				},
				{
					"input":15,
					"interpolation":"LINEAR",
					"output":18
				},
				{
					"input":15,
					"interpolation":"LINEAR",
					"output":19
				},
				{
					"input":15,
					"interpolation":"LINEAR",
					"output":17
				},
				{
					"input":15,
					"interpolation":"LINEAR",
					"output":18
				},
				{
					"input":15,
					"interpolation":"LINEAR",
					"output":20
				},
				{
					"input":15,
					"interpolation":"LINEAR",
					"output":17
				},
				{
					"input":15,
					"interpolation":"LINEAR",
					"output":18
				},
				{
					"input":15,
					"interpolation":"LINEAR",
					"output":21
				},
				{
					"input":15,
					"interpolation":"LINEAR",
					"output":17
				},
				{
					"input":15,
					"interpolation":"LINEAR",
					"output":18
				},
				{
					"input":15,
					"interpolation":"LINEAR",
					"output":21
				},
				{
					"input":15,
					"interpolation":"LINEAR",
					"output":22
				},
				{
					"input":15,
					"interpolation":"LINEAR",
					"output":18
				},
				{
					"input":15,
					"interpolation":"LINEAR",
					"output":23
				},
				{
					"input":15,
					"interpolation":"LINEAR",
					"output":24
				},
				{
					"input":15,
					"interpolation":"LINEAR",
					"output":18
				},
				{
					"input":15,
					"interpolation":"LINEAR",
					"output":25
				},
				{
					"input":15,
					"interpolation":"LINEAR",
					"output":26
				},
				{
					"input":15,
					"interpolation":"LINEAR",
					"output":27
				},
				{
					"input":15,
					"interpolation":"LINEAR",
					"output":28
				},
				{
					"input":15,
					"interpolation":"LINEAR",
					"output":29
				},
				{
					"input":15,
					"interpolation":"LINEAR",
					"output":30
				},
				{
					"input":15,
					"interpolation":"LINEAR",
					"output":21
				},
				{
					"input":15,
					"interpolation":"LINEAR",
					"output":31
				},
				{
					"input":15,
					"interpolation":"LINEAR",
					"output":18
				},
				{
					"input":15,
					"interpolation":"LINEAR",
					"output":32
				},
				{
					"input":15,
					"interpolation":"LINEAR",
					"output":33
				},
				{
					"input":15,
					"interpolation":"LINEAR",
					"output":34
				},
				{
					"input":15,
					"interpolation":"LINEAR",
					"output":35
				},
				{
					"input":15,
					"interpolation":"LINEAR",
					"output":36
				},
				{
					"input":15,
					"interpolation":"LINEAR",
					"output":37
				},
				{
					"input":15,
					"interpolation":"LINEAR",
					"output":38
				},
				{
					"input":15,
					"interpolation":"LINEAR",
					"output":39
				},
				{
					"input":15,
					"interpolation":"LINEAR",
					"output":40
				},
				{
					"input":15,
					"interpolation":"LINEAR",
					"output":16
				},
				{
					"input":15,
					"interpolation":"LINEAR",
					"output":41
				},
				{
					"input":15,
					"interpolation":"LINEAR",
					"output":42
				},
				{
					"input":15,
					"interpolation":"LINEAR",
					"output":43
				},
				{
					"input":15,
					"interpolation":"LINEAR",
					"output":44
				},
				{
					"input":15,
					"interpolation":"LINEAR",
					"output":45
				},
				{
					"input":15,
					"interpolation":"LINEAR",
					"output":46
				},
				{
					"input":15,
					"interpolation":"LINEAR",
					"output":47
				},
				{
					"input":15,
					"interpolation":"LINEAR",
					"output":45
				},
				{
					"input":15,
					"interpolation":"LINEAR",
					"output":48
				},
				{
					"input":15,
					"interpolation":"LINEAR",
					"output":49
				},
				{
					"input":15,
					"interpolation":"LINEAR",
					"output":50
				},
				{
					"input":15,
					"interpolation":"LINEAR",
					"output":16
				},
				{
					"input":15,
					"interpolation":"LINEAR",
					"output":51
				},
				{
					"input":15,
					"interpolation":"LINEAR",
					"output":50
				},
				{
					"input":15,
					"interpolation":"LINEAR",
					"output":52
				},
				{
					"input":15,
					"interpolation":"LINEAR",
					"output":53
				},
				{
					"input":15,
					"interpolation":"LINEAR",
					"output":54
				},
				{
					"input":15,
					"interpolation":"LINEAR",
					"output":55
				},
				{
					"input":15,
					"interpolation":"LINEAR",
					"output":56
				},
				{
					"input":15,
					"interpolation":"LINEAR",
					"output":54
				},
				{
					"input":15,
					"interpolation":"LINEAR",
					"output":57
				},
				{
					"input":15,
					"interpolation":"LINEAR",
					"output":58
				},
				{
					"input":15,
					"interpolation":"LINEAR",
					"output":50
				}
			]
		}
	],
	"materials":[
		{
			"doubleSided":true,
			"name":"Material",
			"pbrMetallicRoughness":{
				"baseColorFactor":[
					0.800000011920929,
					0.800000011920929,
					0.800000011920929,
					1
				],
				"metallicFactor":0,
				"roughnessFactor":0.5
			}
		}
	],
	"meshes":[
		{
			"name":"\u7acb\u65b9\u4f53",
			"primitives":[
				{
					"attributes":{
						"POSITION":0,
						"NORMAL":1,
						"TEXCOORD_0":2,
						"TEXCOORD_1":3,
						"JOINTS_0":4,
						"WEIGHTS_0":5
					},
					"indices":6
				},
				{
					"attributes":{
						"POSITION":7,
						"NORMAL":8,
						"TEXCOORD_0":9,
						"TEXCOORD_1":10,
						"JOINTS_0":11,
						"WEIGHTS_0":12
					},
					"indices":13,
					"material":0
				}
			]
		}
	],
	"skins":[
		{
			"inverseBindMatrices":14,
			"joints":[
				19,
				10,
				9,
				0,
				4,
				3,
				2,
				1,
				8,
				7,
				6,
				5,
				14,
				13,
				12,
				11,
				18,
				17,
				16,
				15
			],
			"name":"\u30a2\u30fc\u30de\u30c1\u30e5\u30a2"
		}
	],
	"accessors":[
		{
			"bufferView":0,
			"componentType":5126,
			"count":680,
			"max":[
				4.268080711364746,
				7.117669105529785,
				1.0802346467971802
			],
			"min":[
				-4.268080711364746,
				-0.6325359344482422,
				-0.4691200852394104
			],
			"type":"VEC3"
		},
		{
			"bufferView":1,
			"componentType":5126,
			"count":680,
			"type":"VEC3"
		},
		{
			"bufferView":2,
			"componentType":5126,
			"count":680,
			"type":"VEC2"
		},
		{
			"bufferView":3,
			"componentType":5126,
			"count":680,
			"type":"VEC2"
		},
		{
			"bufferView":4,
			"componentType":5121,
			"count":680,
			"type":"VEC4"
		},
		{
			"bufferView":5,
			"componentType":5126,
			"count":680,
			"type":"VEC4"
		},
		{
			"bufferView":6,
			"componentType":5123,
			"count":1128,
			"type":"SCALAR"
		},
		{
			"bufferView":7,
			"componentType":5126,
			"count":576,
			"max":[
				0.8203772306442261,
				8.687125205993652,
				0.9183489084243774
			],
			"min":[
				-0.8203772306442261,
				6.933315277099609,
				-0.839506208896637
			],
			"type":"VEC3"
		},
		{
			"bufferView":8,
			"componentType":5126,
			"count":576,
			"type":"VEC3"
		},
		{
			"bufferView":9,
			"componentType":5126,
			"count":576,
			"type":"VEC2"
		},
		{
			"bufferView":10,
			"componentType":5126,
			"count":576,
			"type":"VEC2"
		},
		{
			"bufferView":11,
			"componentType":5121,
			"count":576,
			"type":"VEC4"
		},
		{
			"bufferView":12,
			"componentType":5126,
			"count":576,
			"type":"VEC4"
		},
		{
			"bufferView":13,
			"componentType":5123,
			"count":576,
			"type":"SCALAR"
		},
		{
			"bufferView":14,
			"componentType":5126,
			"count":20,
			"type":"MAT4"
		},
		{
			"bufferView":15,
			"componentType":5126,
			"count":1,
			"max":[
				0.041666666666666664
			],
			"min":[
				0.041666666666666664
			],
			"type":"SCALAR"
		},
		{
			"bufferView":16,
			"componentType":5126,
			"count":1,
			"type":"VEC3"
		},
		{
			"bufferView":17,
			"componentType":5126,
			"count":1,
			"type":"VEC4"
		},
		{
			"bufferView":18,
			"componentType":5126,
			"count":1,
			"type":"VEC3"
		},
		{
			"bufferView":19,
			"componentType":5126,
			"count":1,
			"type":"VEC3"
		},
		{
			"bufferView":20,
			"componentType":5126,
			"count":1,
			"type":"VEC3"
		},
		{
			"bufferView":21,
			"componentType":5126,
			"count":1,
			"type":"VEC3"
		},
		{
			"bufferView":22,
			"componentType":5126,
			"count":1,
			"type":"VEC4"
		},
		{
			"bufferView":23,
			"componentType":5126,
			"count":1,
			"type":"VEC3"
		},
		{
			"bufferView":24,
			"componentType":5126,
			"count":1,
			"type":"VEC4"
		},
		{
			"bufferView":25,
			"componentType":5126,
			"count":1,
			"type":"VEC3"
		},
		{
			"bufferView":26,
			"componentType":5126,
			"count":1,
			"type":"VEC4"
		},
		{
			"bufferView":27,
			"componentType":5126,
			"count":1,
			"type":"VEC3"
		},
		{
			"bufferView":28,
			"componentType":5126,
			"count":1,
			"type":"VEC3"
		},
		{
			"bufferView":29,
			"componentType":5126,
			"count":1,
			"type":"VEC4"
		},
		{
			"bufferView":30,
			"componentType":5126,
			"count":1,
			"type":"VEC3"
		},
		{
			"bufferView":31,
			"componentType":5126,
			"count":1,
			"type":"VEC4"
		},
		{
			"bufferView":32,
			"componentType":5126,
			"count":1,
			"type":"VEC3"
		},
		{
			"bufferView":33,
			"componentType":5126,
			"count":1,
			"type":"VEC4"
		},
		{
			"bufferView":34,
			"componentType":5126,
			"count":1,
			"type":"VEC3"
		},
		{
			"bufferView":35,
			"componentType":5126,
			"count":1,
			"type":"VEC3"
		},
		{
			"bufferView":36,
			"componentType":5126,
			"count":1,
			"type":"VEC4"
		},
		{
			"bufferView":37,
			"componentType":5126,
			"count":1,
			"type":"VEC3"
		},
		{
			"bufferView":38,
			"componentType":5126,
			"count":1,
			"type":"VEC3"
		},
		{
			"bufferView":39,
			"componentType":5126,
			"count":1,
			"type":"VEC4"
		},
		{
			"bufferView":40,
			"componentType":5126,
			"count":1,
			"type":"VEC3"
		},
		{
			"bufferView":41,
			"componentType":5126,
			"count":1,
			"type":"VEC4"
		},
		{
			"bufferView":42,
			"componentType":5126,
			"count":1,
			"type":"VEC3"
		},
		{
			"bufferView":43,
			"componentType":5126,
			"count":1,
			"type":"VEC3"
		},
		{
			"bufferView":44,
			"componentType":5126,
			"count":1,
			"type":"VEC4"
		},
		{
			"bufferView":45,
			"componentType":5126,
			"count":1,
			"type":"VEC3"
		},
		{
			"bufferView":46,
			"componentType":5126,
			"count":1,
			"type":"VEC3"
		},
		{
			"bufferView":47,
			"componentType":5126,
			"count":1,
			"type":"VEC4"
		},
		{
			"bufferView":48,
			"componentType":5126,
			"count":1,
			"type":"VEC3"
		},
		{
			"bufferView":49,
			"componentType":5126,
			"count":1,
			"type":"VEC4"
		},
		{
			"bufferView":50,
			"componentType":5126,
			"count":1,
			"type":"VEC3"
		},
		{
			"bufferView":51,
			"componentType":5126,
			"count":1,
			"type":"VEC4"
		},
		{
			"bufferView":52,
			"componentType":5126,
			"count":1,
			"type":"VEC3"
		},
		{
			"bufferView":53,
			"componentType":5126,
			"count":1,
			"type":"VEC4"
		},
		{
			"bufferView":54,
			"componentType":5126,
			"count":1,
			"type":"VEC3"
		},
		{
			"bufferView":55,
			"componentType":5126,
			"count":1,
			"type":"VEC3"
		},
		{
			"bufferView":56,
			"componentType":5126,
			"count":1,
			"type":"VEC4"
		},
		{
			"bufferView":57,
			"componentType":5126,
			"count":1,
			"type":"VEC3"
		},
		{
			"bufferView":58,
			"componentType":5126,
			"count":1,
			"type":"VEC4"
		}
	],
	"bufferViews":[
		{
			"buffer":0,
			"byteLength":8160,
			"byteOffset":0,
			"target":34962
		},
		{
			"buffer":0,
			"byteLength":8160,
			"byteOffset":8160,
			"target":34962
		},
		{
			"buffer":0,
			"byteLength":5440,
			"byteOffset":16320,
			"target":34962
		},
		{
			"buffer":0,
			"byteLength":5440,
			"byteOffset":21760,
			"target":34962
		},
		{
			"buffer":0,
			"byteLength":2720,
			"byteOffset":27200,
			"target":34962
		},
		{
			"buffer":0,
			"byteLength":10880,
			"byteOffset":29920,
			"target":34962
		},
		{
			"buffer":0,
			"byteLength":2256,
			"byteOffset":40800,
			"target":34963
		},
		{
			"buffer":0,
			"byteLength":6912,
			"byteOffset":43056,
			"target":34962
		},
		{
			"buffer":0,
			"byteLength":6912,
			"byteOffset":49968,
			"target":34962
		},
		{
			"buffer":0,
			"byteLength":4608,
			"byteOffset":56880,
			"target":34962
		},
		{
			"buffer":0,
			"byteLength":4608,
			"byteOffset":61488,
			"target":34962
		},
		{
			"buffer":0,
			"byteLength":2304,
			"byteOffset":66096,
			"target":34962
		},
		{
			"buffer":0,
			"byteLength":9216,
			"byteOffset":68400,
			"target":34962
		},
		{
			"buffer":0,
			"byteLength":1152,
			"byteOffset":77616,
			"target":34963
		},
		{
			"buffer":0,
			"byteLength":1280,
			"byteOffset":78768
		},
		{
			"buffer":0,
			"byteLength":4,
			"byteOffset":80048
		},
		{
			"buffer":0,
			"byteLength":12,
			"byteOffset":80052
		},
		{
			"buffer":0,
			"byteLength":16,
			"byteOffset":80064
		},
		{
			"buffer":0,
			"byteLength":12,
			"byteOffset":80080
		},
		{
			"buffer":0,
			"byteLength":12,
			"byteOffset":80092
		},
		{
			"buffer":0,
			"byteLength":12,
			"byteOffset":80104
		},
		{
			"buffer":0,
			"byteLength":12,
			"byteOffset":80116
		},
		{
			"buffer":0,
			"byteLength":16,
			"byteOffset":80128
		},
		{
			"buffer":0,
			"byteLength":12,
			"byteOffset":80144
		},
		{
			"buffer":0,
			"byteLength":16,
			"byteOffset":80156
		},
		{
			"buffer":0,
			"byteLength":12,
			"byteOffset":80172
		},
		{
			"buffer":0,
			"byteLength":16,
			"byteOffset":80184
		},
		{
			"buffer":0,
			"byteLength":12,
			"byteOffset":80200
		},
		{
			"buffer":0,
			"byteLength":12,
			"byteOffset":80212
		},
		{
			"buffer":0,
			"byteLength":16,
			"byteOffset":80224
		},
		{
			"buffer":0,
			"byteLength":12,
			"byteOffset":80240
		},
		{
			"buffer":0,
			"byteLength":16,
			"byteOffset":80252
		},
		{
			"buffer":0,
			"byteLength":12,
			"byteOffset":80268
		},
		{
			"buffer":0,
			"byteLength":16,
			"byteOffset":80280
		},
		{
			"buffer":0,
			"byteLength":12,
			"byteOffset":80296
		},
		{
			"buffer":0,
			"byteLength":12,
			"byteOffset":80308
		},
		{
			"buffer":0,
			"byteLength":16,
			"byteOffset":80320
		},
		{
			"buffer":0,
			"byteLength":12,
			"byteOffset":80336
		},
		{
			"buffer":0,
			"byteLength":12,
			"byteOffset":80348
		},
		{
			"buffer":0,
			"byteLength":16,
			"byteOffset":80360
		},
		{
			"buffer":0,
			"byteLength":12,
			"byteOffset":80376
		},
		{
			"buffer":0,
			"byteLength":16,
			"byteOffset":80388
		},
		{
			"buffer":0,
			"byteLength":12,
			"byteOffset":80404
		},
		{
			"buffer":0,
			"byteLength":12,
			"byteOffset":80416
		},
		{
			"buffer":0,
			"byteLength":16,
			"byteOffset":80428
		},
		{
			"buffer":0,
			"byteLength":12,
			"byteOffset":80444
		},
		{
			"buffer":0,
			"byteLength":12,
			"byteOffset":80456
		},
		{
			"buffer":0,
			"byteLength":16,
			"byteOffset":80468
		},
		{
			"buffer":0,
			"byteLength":12,
			"byteOffset":80484
		},
		{
			"buffer":0,
			"byteLength":16,
			"byteOffset":80496
		},
		{
			"buffer":0,
			"byteLength":12,
			"byteOffset":80512
		},
		{
			"buffer":0,
			"byteLength":16,
			"byteOffset":80524
		},
		{
			"buffer":0,
			"byteLength":12,
			"byteOffset":80540
		},
		{
			"buffer":0,
			"byteLength":16,
			"byteOffset":80552
		},
		{
			"buffer":0,
			"byteLength":12,
			"byteOffset":80568
		},
		{
			"buffer":0,
			"byteLength":12,
			"byteOffset":80580
		},
		{
			"buffer":0,
			"byteLength":16,
			"byteOffset":80592
		},
		{
			"buffer":0,
			"byteLength":12,
			"byteOffset":80608
		},
		{
			"buffer":0,
			"byteLength":16,
			"byteOffset":80620
		}
	],
	"buffers":[
		{
			"byteLength":80636,
			"uri":"HumanIdle.bin"
		}
	]
}
